<?xml version="1.0" encoding="UTF-8" standalone="no"?>
<svg
   xmlns:dc="http://purl.org/dc/elements/1.1/"
   xmlns:cc="http://creativecommons.org/ns#"
   xmlns:rdf="http://www.w3.org/1999/02/22-rdf-syntax-ns#"
   xmlns:svg="http://www.w3.org/2000/svg"
   xmlns="http://www.w3.org/2000/svg"
   viewBox="0 0 1122.52 793.70667"
   height="793.70667"
   width="1122.52"
   xml:space="preserve"
   id="svg2"
   version="1.1"><metadata
     id="metadata8"><rdf:RDF><cc:Work
         rdf:about=""><dc:format>image/svg+xml</dc:format><dc:type
           rdf:resource="http://purl.org/dc/dcmitype/StillImage" /><dc:title></dc:title></cc:Work></rdf:RDF></metadata><defs
     id="defs6"><clipPath
       id="clipPath58"
       clipPathUnits="userSpaceOnUse"><path
         id="path56"
         d="M 0,595.28 H 841.89 V 0 H 0 Z" /></clipPath></defs><g
     transform="matrix(1.3333333,0,0,-1.3333333,0,793.70667)"
     id="g10"><g
       transform="translate(320.2046,265.9609)"
       id="g12"><path
         id="path14"
         style="fill:#0092dd;fill-opacity:1;fill-rule:nonzero;stroke:none"
         d="m 0,0 -10.446,28.752 89.067,40.94 89.067,-40.94 -4.201,-11.563 -13.192,8.13 -22.5,-10.333 -5.167,15 -18.178,-2 -17.321,18 -16.334,-18.667 -5.166,4.36 -15.5,-17.86 -18,21.834 z" /></g><g
       transform="translate(311.0127,294.1885)"
       id="g16"><path
         id="path18"
         style="fill:#000000;fill-opacity:1;fill-rule:nonzero;stroke:none"
         d="M 0,0 9.563,-26.321 41.354,8.957 59.34,-12.86 74.712,4.852 79.881,0.489 96.286,19.237 114.021,0.807 132.506,2.84 137.573,-11.872 159.557,-1.776 172.158,-9.543 175.626,0 87.813,40.364 Z M 8.82,-30.134 -2.509,1.049 -1.672,1.433 87.813,42.565 178.134,1.049 173.199,-12.533 159.418,-4.04 136.401,-14.61 131.135,0.678 113.262,-1.289 96.356,16.28 80.093,-2.306 74.93,2.052 59.301,-15.956 41.287,5.894 Z" /></g><g
       transform="translate(320.2046,265.9609)"
       id="g20"><path
         id="path22"
         style="fill:#000000;fill-opacity:1;fill-rule:nonzero;stroke:none"
         d="m 0,0 32.129,35.653 18,-21.834 15.5,17.86 5.166,-4.36 16.334,18.667 17.321,-18 18.178,2 5.167,-15 22.5,10.333 13.192,-8.13 -5.019,-13.813 -9.385,8.11 -23.788,-0.834 -5.833,6.5 -13.667,-6.833 -17,5.833 -3.001,21.001 -14.499,-15.501 -5.666,4.334 -15.167,-17.91 -19,8.076 z" /></g><g
       transform="translate(352.2998,300.0825)"
       id="g24"><path
         id="path26"
         style="fill:#000000;fill-opacity:1;fill-rule:nonzero;stroke:none"
         d="m 0,0 -27.705,-30.744 27.032,13.878 18.753,-7.97 15.305,18.073 5.703,-4.362 15.306,16.363 3.21,-22.46 16.024,-5.498 13.975,6.986 6.029,-6.72 23.713,0.831 8.584,-7.417 4.245,11.684 -12.043,7.422 L 95.114,-20.504 89.848,-5.216 71.975,-7.183 55.069,10.386 38.806,-8.2 33.643,-3.842 18.014,-21.85 Z m -31.639,-35.011 -1.199,1.559 32.905,36.515 17.986,-21.817 15.372,17.712 5.169,-4.363 16.405,18.748 17.735,-18.43 18.485,2.033 5.067,-14.712 21.984,10.096 14.339,-8.838 -5.792,-15.943 -10.187,8.803 -23.861,-0.837 -5.637,6.28 -13.36,-6.679 -17.975,6.168 -2.793,19.541 -13.692,-14.639 -5.63,4.307 -15.028,-17.747 -19.247,8.181 z" /></g><g
       transform="translate(320.2046,265.9609)"
       id="g28"><path
         id="path30"
         style="fill:#ffffff;fill-opacity:1;fill-rule:nonzero;stroke:none"
         d="m 0,0 31.462,16.152 19,-8.076 15.167,17.91 5.666,-4.334 14.499,15.501 3.001,-21.001 17,-5.833 13.667,6.833 5.833,-6.5 23.788,0.834 9.385,-8.109 -7.464,-20.544 -32.959,12.486 -37,-11.75 -20.25,7.5 -31.25,-18.5 -23.377,10.454 z" /></g><g
       transform="translate(327.1675,249.7246)"
       id="g32"><path
         id="path34"
         style="fill:#000000;fill-opacity:1;fill-rule:nonzero;stroke:none"
         d="m 0,0 22.519,-10.07 31.214,18.479 20.374,-7.546 37.005,11.751 32.336,-12.251 6.883,18.944 -8.569,7.403 -23.861,-0.837 -5.637,6.28 L 98.905,25.474 80.929,31.642 78.137,51.183 64.444,36.544 58.814,40.851 43.786,23.104 24.539,31.285 -5.722,15.749 Z M 22.646,-12.318 -1.59,-1.48 l -6.614,18.204 32.663,16.768 18.753,-7.971 15.306,18.074 5.703,-4.362 15.305,16.363 3.21,-22.46 16.024,-5.498 13.975,6.986 6.029,-6.72 23.713,0.831 L 152.68,19.92 144.635,-2.225 111.053,10.497 74.058,-1.252 53.932,6.202 Z" /></g><g
       transform="translate(326.3726,248.9844)"
       id="g36"><path
         id="path38"
         style="fill:#009041;fill-opacity:1;fill-rule:nonzero;stroke:none"
         d="m 0,0 23.377,-10.454 31.25,18.5 20.25,-7.5 37,11.75 32.959,-12.485 -16.675,-45.898 -55.708,-9.972 -55.709,9.972 z" /></g><g
       transform="translate(343.8599,203.7803)"
       id="g40"><path
         id="path42"
         style="fill:#000000;fill-opacity:1;fill-rule:nonzero;stroke:none"
         d="M 0,0 54.965,-9.839 109.93,0 126.073,44.429 94.361,56.441 57.365,44.692 37.24,52.146 5.954,33.626 -15.742,43.328 Z M 54.965,-11.87 54.789,-11.839 -1.486,-1.766 -19.233,47.08 5.826,35.874 37.041,54.354 57.415,46.808 94.419,58.559 128.625,45.601 111.417,-1.766 Z" /></g><g
       transform="translate(454.5332,202.8975)"
       id="g44"><path
         id="path46"
         style="fill:#ffffff;fill-opacity:1;fill-rule:nonzero;stroke:none"
         d="M 0,0 -55.708,-9.972 -111.417,0 l -33.358,91.815 89.067,40.94 89.067,-40.94 z m 64.457,97.063 -98.908,45.463 8.072,3.71 -7.416,16.134 -21.913,-10.073 -21.913,10.073 -7.416,-16.134 8.072,-3.71 -98.908,-45.463 7.416,-16.133 7.493,3.444 36.352,-100.051 68.904,-12.333 68.904,12.333 36.352,100.051 7.493,-3.444 z" /></g><g
       transform="translate(343.8599,203.7803)"
       id="g48"><path
         id="path50"
         style="fill:#000000;fill-opacity:1;fill-rule:nonzero;stroke:none"
         d="M 0,0 54.965,-9.839 109.93,0 142.779,90.408 54.965,130.772 -32.847,90.408 Z m 54.965,-11.87 -0.176,0.031 -56.275,10.073 -33.87,93.223 0.837,0.384 89.484,41.132 90.322,-41.516 -33.87,-93.223 z m -68.161,-3.807 68.161,-12.2 68.161,12.2 36.526,100.531 7.571,-3.481 6.581,14.316 -99.976,45.954 9.14,4.201 -6.58,14.317 -21.423,-9.848 -21.422,9.848 -6.58,-14.316 9.14,-4.201 -99.977,-45.955 6.581,-14.316 7.571,3.481 z m 68.161,-14.231 -0.176,0.031 -69.471,12.435 -36.177,99.571 -7.415,-3.408 -8.252,17.949 97.84,44.974 -7.003,3.218 8.25,17.951 22.404,-10.298 22.404,10.298 8.252,-17.95 -7.004,-3.22 97.84,-44.973 -8.251,-17.949 -7.415,3.408 -36.178,-99.571 z" /></g><g
       id="g52"><g
         clip-path="url(#clipPath58)"
         id="g54"><g
           transform="translate(317.5757,309.605)"
           id="g60"><path
             id="path62"
             style="fill:#000000;fill-opacity:1;fill-rule:nonzero;stroke:none"
             d="M 0,0 C -0.172,0.376 -0.388,0.672 -0.646,0.889 -0.904,1.108 -1.207,1.243 -1.554,1.295 -1.855,1.341 -2.17,1.328 -2.497,1.257 -2.825,1.185 -3.217,1.045 -3.671,0.836 l -1.422,-0.653 1.999,-4.349 1.212,0.557 c 0.58,0.267 1.028,0.536 1.342,0.807 0.315,0.272 0.533,0.574 0.655,0.908 0.12,0.339 0.168,0.658 0.143,0.96 C 0.234,-0.633 0.148,-0.321 0,0 M 1.478,0.724 C 1.699,0.242 1.821,-0.244 1.844,-0.732 1.866,-1.221 1.797,-1.685 1.636,-2.125 1.437,-2.671 1.125,-3.156 0.704,-3.576 0.282,-3.998 -0.315,-4.385 -1.09,-4.741 l -1.436,-0.66 1.865,-4.057 -1.437,-0.66 -5.003,10.883 2.932,1.347 c 0.648,0.298 1.222,0.496 1.722,0.593 0.5,0.098 0.978,0.109 1.434,0.035 C -0.474,2.65 0.003,2.451 0.418,2.141 0.833,1.83 1.187,1.357 1.478,0.724" /></g><g
           transform="translate(332.5239,318.9473)"
           id="g64"><path
             id="path66"
             style="fill:#000000;fill-opacity:1;fill-rule:nonzero;stroke:none"
             d="m 0,0 -3.859,-1.774 4.411,-9.597 -1.436,-0.66 -4.412,9.596 -3.859,-1.773 -0.591,1.286 9.155,4.208 z" /></g><g
           transform="translate(346.9502,325.5781)"
           id="g68"><path
             id="path70"
             style="fill:#000000;fill-opacity:1;fill-rule:nonzero;stroke:none"
             d="m 0,0 -3.859,-1.774 4.411,-9.597 -1.436,-0.66 -4.412,9.596 -3.86,-1.773 -0.591,1.286 9.156,4.208 z" /></g><g
           transform="translate(366.0186,322.7188)"
           id="g72"><path
             id="path74"
             style="fill:#000000;fill-opacity:1;fill-rule:nonzero;stroke:none"
             d="m 0,0 -1.865,-0.857 -6.5,2.881 -0.544,-1.649 1.698,-3.69 -1.437,-0.66 -5.002,10.883 1.436,0.66 2.61,-5.679 2.635,8.09 1.742,0.8 -2.474,-7.334 z" /></g><g
           transform="translate(312.8145,309.6655)"
           id="g76"><path
             id="path78"
             style="fill:#000000;fill-opacity:1;fill-rule:nonzero;stroke:none"
             d="m 0,0 1.79,-3.895 0.984,0.453 c 0.558,0.256 0.989,0.515 1.284,0.769 0.285,0.246 0.476,0.509 0.584,0.804 0.106,0.301 0.15,0.589 0.129,0.854 -0.022,0.271 -0.102,0.557 -0.237,0.85 C 4.378,0.176 4.183,0.445 3.954,0.637 3.729,0.828 3.474,0.942 3.17,0.988 2.897,1.03 2.614,1.017 2.317,0.952 2.006,0.884 1.628,0.748 1.195,0.549 Z M 1.545,-4.558 -0.663,0.245 0.986,1.003 C 1.452,1.217 1.864,1.365 2.211,1.44 2.567,1.519 2.915,1.532 3.245,1.482 3.637,1.423 3.984,1.267 4.276,1.019 4.561,0.781 4.801,0.452 4.988,0.043 5.147,-0.302 5.242,-0.645 5.269,-0.975 5.296,-1.311 5.243,-1.668 5.112,-2.038 4.976,-2.412 4.731,-2.752 4.385,-3.052 4.054,-3.336 3.583,-3.621 2.983,-3.896 Z m -3.553,5.14 4.794,-10.429 0.983,0.451 -1.866,4.057 1.664,0.765 c 0.746,0.343 1.325,0.718 1.721,1.115 0.394,0.392 0.688,0.849 0.875,1.359 0.148,0.408 0.213,0.844 0.192,1.296 C 6.334,-0.35 6.219,0.108 6.012,0.559 5.739,1.151 5.409,1.596 5.029,1.881 4.649,2.165 4.204,2.35 3.708,2.433 3.284,2.501 2.83,2.491 2.362,2.399 1.884,2.306 1.324,2.113 0.697,1.825 Z M 2.541,-10.51 -2.671,0.827 0.488,2.279 C 1.152,2.584 1.75,2.79 2.266,2.89 2.792,2.992 3.305,3.004 3.789,2.926 4.365,2.83 4.883,2.613 5.329,2.281 5.776,1.945 6.159,1.436 6.466,0.768 6.7,0.258 6.831,-0.263 6.854,-0.781 6.878,-1.3 6.804,-1.801 6.632,-2.271 6.42,-2.851 6.087,-3.37 5.641,-3.813 5.203,-4.252 4.575,-4.661 3.776,-5.028 l -1.21,-0.556 1.866,-4.057 z" /></g><g
           transform="translate(327.3506,316.8442)"
           id="g80"><path
             id="path82"
             style="fill:#000000;fill-opacity:1;fill-rule:nonzero;stroke:none"
             d="m 0,0 4.412,-9.597 0.982,0.451 -4.412,9.597 3.86,1.775 -0.382,0.832 -8.701,-4 0.382,-0.832 z m 4.167,-10.26 -4.412,9.597 -3.859,-1.774 -0.8,1.74 9.609,4.418 0.8,-1.741 -3.859,-1.774 4.411,-9.597 z" /></g><g
           transform="translate(341.7764,323.4751)"
           id="g84"><path
             id="path86"
             style="fill:#000000;fill-opacity:1;fill-rule:nonzero;stroke:none"
             d="m 0,0 4.412,-9.597 0.983,0.452 -4.412,9.597 3.859,1.774 -0.382,0.832 -8.701,-4 0.382,-0.832 z m 4.167,-10.26 -4.412,9.597 -3.859,-1.774 -0.8,1.74 9.61,4.418 L 5.505,1.98 1.646,0.207 6.058,-9.39 Z" /></g><g
           transform="translate(352.6997,329.5039)"
           id="g88"><path
             id="path90"
             style="fill:#000000;fill-opacity:1;fill-rule:nonzero;stroke:none"
             d="m 0,0 4.793,-10.429 0.983,0.451 -1.634,3.553 0.661,2.005 6.649,-2.948 1.262,0.58 -7.405,3.313 2.361,7 -1.116,-0.513 -2.8,-8.593 -2.772,6.032 z m 4.548,-11.092 -5.211,11.337 1.89,0.869 2.448,-5.325 2.471,7.586 2.368,1.088 -2.586,-7.668 7.996,-3.577 -2.468,-1.135 -6.352,2.816 -0.426,-1.294 1.761,-3.828 z" /></g><g
           transform="translate(300.9385,275.6855)"
           id="g92"><path
             id="path94"
             style="fill:#000000;fill-opacity:1;fill-rule:nonzero;stroke:none"
             d="M 0,0 -0.697,1.931 2.722,8.165 1.125,8.845 -2.696,7.465 -3.233,8.952 8.032,13.021 8.569,11.533 2.691,9.411 10.53,6.104 11.182,4.302 4.082,7.383 Z" /></g><g
           transform="translate(304.5146,265.7832)"
           id="g96"><path
             id="path98"
             style="fill:#000000;fill-opacity:1;fill-rule:nonzero;stroke:none"
             d="M 0,0 -2.555,7.074 8.711,11.143 9.248,9.655 -0.686,6.068 1.332,0.48 Z" /></g><g
           transform="translate(312.9834,256.4941)"
           id="g100"><path
             id="path102"
             style="fill:#000000;fill-opacity:1;fill-rule:nonzero;stroke:none"
             d="m 0,0 c -0.817,-0.295 -1.562,-0.463 -2.232,-0.505 -0.673,-0.042 -1.284,0.067 -1.834,0.327 -0.523,0.247 -0.965,0.597 -1.329,1.049 -0.362,0.451 -0.668,1.021 -0.915,1.707 -0.253,0.7 -0.38,1.345 -0.382,1.933 -10e-4,0.589 0.117,1.126 0.35,1.612 0.268,0.555 0.661,1.027 1.183,1.416 0.52,0.389 1.208,0.737 2.059,1.045 L 3.642,11.019 4.179,9.532 -2.638,7.07 C -3.248,6.85 -3.715,6.635 -4.038,6.424 -4.361,6.214 -4.632,5.959 -4.849,5.66 -5.098,5.322 -5.236,4.934 -5.266,4.495 -5.296,4.058 -5.216,3.572 -5.023,3.042 -4.83,2.507 -4.584,2.08 -4.284,1.764 c 0.3,-0.317 0.657,-0.527 1.07,-0.632 0.36,-0.092 0.737,-0.111 1.139,-0.061 0.4,0.052 0.875,0.177 1.425,0.375 L 6.204,3.922 6.741,2.435 Z" /></g><g
           transform="translate(320.541,248.1455)"
           id="g104"><path
             id="path106"
             style="fill:#000000;fill-opacity:1;fill-rule:nonzero;stroke:none"
             d="M 0,0 C 0.273,0.098 0.485,0.226 0.641,0.384 0.794,0.541 0.893,0.74 0.937,0.982 0.988,1.268 0.969,1.583 0.881,1.931 0.792,2.277 0.658,2.699 0.479,3.194 L -0.16,4.967 -3.414,3.792 -2.721,1.87 C -2.552,1.404 -2.394,1.042 -2.246,0.784 -2.099,0.526 -1.907,0.307 -1.671,0.126 -1.434,-0.055 -1.18,-0.15 -0.904,-0.162 -0.629,-0.173 -0.327,-0.119 0,0 m -4.793,-2.81 c 0.454,0.164 0.79,0.362 1.009,0.594 0.219,0.232 0.357,0.559 0.415,0.982 0.039,0.286 0.015,0.607 -0.069,0.963 C -3.525,0.086 -3.656,0.51 -3.834,1 l -0.844,2.336 -4.191,-1.514 0.711,-1.968 c 0.235,-0.651 0.461,-1.171 0.679,-1.562 0.218,-0.391 0.465,-0.687 0.744,-0.886 0.297,-0.21 0.596,-0.334 0.895,-0.373 0.3,-0.039 0.649,0.014 1.047,0.157 m 0.619,-1.525 c -0.56,-0.202 -1.092,-0.275 -1.597,-0.221 -0.504,0.056 -0.959,0.212 -1.365,0.467 -0.485,0.301 -0.888,0.677 -1.211,1.129 -0.323,0.452 -0.626,1.066 -0.906,1.842 L -10.685,2.848 0.581,6.916 1.776,3.604 C 2.071,2.788 2.263,2.166 2.349,1.739 2.435,1.312 2.447,0.878 2.391,0.438 2.321,-0.051 2.15,-0.449 1.878,-0.758 1.604,-1.065 1.229,-1.306 0.756,-1.477 0.221,-1.67 -0.283,-1.699 -0.757,-1.564 -1.23,-1.43 -1.662,-1.178 -2.051,-0.81 l -0.06,-0.021 C -1.995,-1.644 -2.114,-2.36 -2.469,-2.98 -2.823,-3.602 -3.393,-4.053 -4.174,-4.335" /></g><g
           transform="translate(325.6563,224.8652)"
           id="g108"><path
             id="path110"
             style="fill:#000000;fill-opacity:1;fill-rule:nonzero;stroke:none"
             d="M 0,0 C 1.462,0.528 2.473,1.261 3.033,2.199 3.592,3.137 3.668,4.169 3.262,5.296 2.851,6.432 2.131,7.181 1.104,7.542 0.074,7.904 -1.172,7.82 -2.634,7.292 -4.111,6.759 -5.124,6.02 -5.669,5.075 -6.216,4.131 -6.287,3.104 -5.886,1.992 -5.484,0.88 -4.773,0.138 -3.75,-0.238 -2.729,-0.613 -1.478,-0.533 0,0 M 4.392,1.434 C 4.051,0.796 3.56,0.223 2.916,-0.284 2.271,-0.791 1.486,-1.212 0.559,-1.547 -0.37,-1.883 -1.246,-2.059 -2.07,-2.076 c -0.823,-0.017 -1.561,0.109 -2.209,0.378 -0.677,0.276 -1.256,0.682 -1.74,1.218 -0.485,0.536 -0.873,1.207 -1.164,2.012 -0.284,0.786 -0.41,1.548 -0.38,2.286 0.029,0.739 0.212,1.423 0.549,2.054 0.338,0.631 0.825,1.199 1.463,1.704 0.639,0.505 1.425,0.926 2.359,1.263 0.918,0.332 1.784,0.51 2.599,0.532 C 0.224,9.394 0.973,9.269 1.66,8.996 2.313,8.733 2.889,8.323 3.388,7.765 3.885,7.206 4.274,6.541 4.553,5.771 4.842,4.969 4.969,4.202 4.935,3.468 4.9,2.733 4.719,2.056 4.392,1.434" /></g><g
           transform="translate(331.9951,215.0313)"
           id="g112"><path
             id="path114"
             style="fill:#000000;fill-opacity:1;fill-rule:nonzero;stroke:none"
             d="M 0,0 C 0.322,0.116 0.589,0.276 0.798,0.479 1.008,0.682 1.15,0.944 1.228,1.267 1.296,1.535 1.306,1.827 1.257,2.144 1.208,2.46 1.111,2.818 0.967,3.219 L 0.335,4.969 -3.916,3.433 -3.374,1.931 c 0.17,-0.47 0.359,-0.867 0.569,-1.187 0.209,-0.32 0.473,-0.561 0.787,-0.725 0.295,-0.149 0.598,-0.227 0.912,-0.236 C -0.793,-0.226 -0.423,-0.153 0,0 m -6.84,-6.4 -0.697,1.929 3.129,5.358 -0.757,2.095 -4.48,-1.618 -0.537,1.488 L 1.084,6.92 2.215,3.788 C 2.459,3.112 2.618,2.533 2.693,2.051 2.768,1.568 2.758,1.106 2.659,0.663 2.549,0.165 2.34,-0.269 2.03,-0.638 1.722,-1.007 1.269,-1.3 0.667,-1.517 -0.145,-1.81 -0.897,-1.853 -1.592,-1.645 c -0.693,0.208 -1.307,0.618 -1.842,1.229 z" /></g><g
           transform="translate(330.1084,197.5186)"
           id="g116"><path
             id="path118"
             style="fill:#000000;fill-opacity:1;fill-rule:nonzero;stroke:none"
             d="m 0,0 c -0.503,0.509 -0.989,1.088 -1.46,1.735 -0.471,0.648 -0.827,1.31 -1.071,1.986 -0.316,0.871 -0.483,1.714 -0.502,2.527 -0.022,0.814 0.12,1.563 0.419,2.248 0.302,0.692 0.77,1.312 1.403,1.857 0.632,0.545 1.44,0.996 2.425,1.351 1.801,0.65 3.41,0.642 4.829,-0.026 C 7.462,11.01 8.5,9.765 9.158,7.942 9.388,7.307 9.545,6.629 9.631,5.91 9.717,5.191 9.714,4.382 9.622,3.483 L 7.844,2.841 7.795,2.977 C 7.86,3.175 7.937,3.458 8.027,3.824 8.117,4.19 8.177,4.541 8.205,4.873 8.236,5.275 8.224,5.714 8.171,6.189 8.114,6.665 7.988,7.181 7.787,7.736 7.335,8.988 6.572,9.831 5.5,10.268 4.427,10.704 3.2,10.673 1.818,10.174 0.359,9.646 -0.637,8.856 -1.171,7.804 -1.706,6.75 -1.735,5.567 -1.262,4.256 -1.089,3.775 -0.867,3.313 -0.599,2.869 -0.332,2.426 -0.057,2.051 0.226,1.746 L 2.988,2.743 1.905,5.739 3.222,6.215 4.836,1.746 Z" /></g><g
           transform="translate(300.5146,277.5947)"
           id="g120"><path
             id="path122"
             style="fill:#000000;fill-opacity:1;fill-rule:nonzero;stroke:none"
             d="M 0,0 0.472,-1.306 4.397,5.793 11.173,2.853 10.756,4.007 2.429,7.521 8.673,9.774 8.306,10.791 -2.49,6.893 -2.122,5.876 1.556,7.204 3.498,6.378 Z M 0.376,-2.513 -0.547,0.043 2.793,6.134 1.542,6.667 -2.423,5.235 -3.129,7.193 8.606,11.432 9.313,9.474 3.801,7.483 11.152,4.382 12.038,1.933 4.615,5.154 Z" /></g><g
           transform="translate(302.2798,272.707)"
           id="g124"><path
             id="path126"
             style="fill:#000000;fill-opacity:1;fill-rule:nonzero;stroke:none"
             d="m 0,0 2.385,-6.604 0.862,0.311 -2.018,5.588 9.934,3.587 -0.368,1.016 z M 2.084,-7.244 -0.64,0.301 11.096,4.539 11.803,2.581 1.869,-1.006 3.887,-6.594 Z" /></g><g
           transform="translate(316.4746,267.1924)"
           id="g128"><path
             id="path130"
             style="fill:#000000;fill-opacity:1;fill-rule:nonzero;stroke:none"
             d="m 0,0 -6.506,-2.35 c -0.826,-0.297 -1.496,-0.637 -1.995,-1.009 -0.485,-0.362 -0.857,-0.808 -1.107,-1.325 -0.217,-0.452 -0.327,-0.958 -0.326,-1.504 0.002,-0.557 0.126,-1.179 0.368,-1.847 0.237,-0.656 0.531,-1.207 0.875,-1.636 0.338,-0.42 0.755,-0.75 1.24,-0.979 0.51,-0.24 1.084,-0.344 1.712,-0.303 0.645,0.04 1.373,0.205 2.163,0.49 l 6.506,2.35 -0.367,1.016 -6.62,-2.39 c -0.564,-0.203 -1.061,-0.334 -1.477,-0.388 -0.436,-0.055 -0.845,-0.032 -1.233,0.066 -0.459,0.118 -0.859,0.354 -1.19,0.703 -0.321,0.338 -0.588,0.798 -0.793,1.365 -0.203,0.559 -0.289,1.083 -0.256,1.555 0.032,0.485 0.189,0.921 0.465,1.296 0.233,0.322 0.528,0.599 0.875,0.826 0.34,0.221 0.815,0.441 1.452,0.671 l 6.581,2.377 z m -6,-11.462 c -0.598,0 -1.158,0.121 -1.664,0.359 -0.554,0.263 -1.031,0.639 -1.417,1.12 -0.378,0.471 -0.7,1.07 -0.955,1.778 -0.262,0.722 -0.396,1.4 -0.398,2.017 -0.001,0.621 0.125,1.2 0.375,1.721 0.286,0.591 0.709,1.098 1.259,1.508 0.538,0.401 1.253,0.765 2.124,1.08 l 6.977,2.52 0.707,-1.957 -7.052,-2.547 c -0.591,-0.214 -1.045,-0.423 -1.349,-0.62 -0.296,-0.194 -0.546,-0.429 -0.745,-0.702 -0.219,-0.298 -0.343,-0.646 -0.369,-1.035 -0.028,-0.403 0.049,-0.857 0.227,-1.351 0.182,-0.502 0.412,-0.903 0.686,-1.192 0.264,-0.279 0.584,-0.467 0.951,-0.561 0.327,-0.083 0.677,-0.101 1.045,-0.055 0.38,0.049 0.841,0.171 1.371,0.362 l 7.09,2.561 0.707,-1.958 -6.976,-2.52 c -0.835,-0.3 -1.61,-0.475 -2.302,-0.518 -0.099,-0.007 -0.196,-0.01 -0.292,-0.01" /></g><g
           transform="translate(317.4468,251.7871)"
           id="g132"><path
             id="path134"
             style="fill:#000000;fill-opacity:1;fill-rule:nonzero;stroke:none"
             d="m 0,0 0.609,-1.687 c 0.163,-0.451 0.317,-0.802 0.456,-1.046 0.131,-0.229 0.303,-0.425 0.51,-0.584 0.197,-0.15 0.402,-0.227 0.626,-0.237 0.284,0 0.537,0.049 0.808,0.148 0.235,0.084 0.419,0.192 0.548,0.323 0.118,0.122 0.193,0.275 0.228,0.469 0.045,0.245 0.027,0.529 -0.052,0.842 -0.087,0.338 -0.22,0.756 -0.395,1.24 L 2.784,1.005 Z M 2.259,-4.055 2.18,-4.054 c -0.326,0.014 -0.631,0.128 -0.908,0.339 -0.261,0.2 -0.477,0.446 -0.641,0.734 -0.153,0.268 -0.319,0.646 -0.492,1.125 L -0.64,0.301 3.084,1.646 3.809,-0.362 c 0.18,-0.499 0.317,-0.932 0.408,-1.286 0.097,-0.384 0.117,-0.74 0.06,-1.056 C 4.224,-2.994 4.102,-3.239 3.914,-3.433 3.731,-3.618 3.484,-3.768 3.178,-3.877 2.854,-3.995 2.545,-4.055 2.259,-4.055 m -7.714,2.085 0.626,-1.732 c 0.231,-0.64 0.454,-1.152 0.663,-1.526 0.2,-0.358 0.425,-0.628 0.67,-0.804 0.261,-0.184 0.525,-0.295 0.783,-0.328 0.26,-0.033 0.57,0.015 0.929,0.144 0.415,0.15 0.722,0.328 0.912,0.529 0.182,0.193 0.299,0.477 0.35,0.845 0.034,0.253 0.012,0.546 -0.065,0.872 -0.087,0.354 -0.217,0.773 -0.388,1.243 l -0.759,2.101 z m 2.908,-4.901 c -0.08,0 -0.157,0.005 -0.231,0.015 -0.339,0.044 -0.678,0.184 -1.007,0.417 -0.307,0.219 -0.582,0.544 -0.818,0.967 -0.225,0.403 -0.452,0.925 -0.696,1.6 l -0.796,2.203 4.662,1.684 0.929,-2.572 c 0.176,-0.487 0.312,-0.923 0.402,-1.296 0.093,-0.387 0.118,-0.742 0.075,-1.057 -0.065,-0.473 -0.226,-0.85 -0.481,-1.119 -0.247,-0.263 -0.609,-0.478 -1.106,-0.658 -0.34,-0.122 -0.654,-0.184 -0.933,-0.184 m -4.724,5.927 1.348,-3.731 c 0.27,-0.749 0.565,-1.348 0.874,-1.781 0.301,-0.423 0.685,-0.78 1.139,-1.062 0.374,-0.235 0.798,-0.379 1.261,-0.431 0.465,-0.045 0.962,0.019 1.484,0.208 0.722,0.261 1.251,0.678 1.573,1.243 0.325,0.568 0.435,1.237 0.327,1.99 l -0.028,0.202 0.397,0.142 0.111,-0.106 c 0.358,-0.338 0.759,-0.573 1.191,-0.696 0.421,-0.12 0.876,-0.092 1.359,0.083 0.431,0.155 0.775,0.374 1.021,0.65 0.237,0.269 0.389,0.628 0.451,1.065 0.054,0.411 0.04,0.821 -0.039,1.217 -0.083,0.409 -0.272,1.024 -0.562,1.828 L 3.525,2.954 Z m 4.922,-7.521 c -0.119,0 -0.237,0.007 -0.354,0.019 -0.54,0.059 -1.035,0.229 -1.472,0.504 -0.51,0.316 -0.941,0.718 -1.281,1.195 -0.336,0.471 -0.651,1.11 -0.938,1.902 L -7.91,-0.644 3.826,3.595 5.106,0.047 c 0.303,-0.838 0.493,-1.46 0.582,-1.9 0.09,-0.449 0.105,-0.914 0.045,-1.382 C 5.656,-3.774 5.464,-4.221 5.16,-4.564 4.857,-4.904 4.445,-5.169 3.935,-5.354 3.353,-5.564 2.792,-5.595 2.269,-5.446 1.917,-5.347 1.584,-5.185 1.274,-4.965 1.289,-5.621 1.145,-6.218 0.842,-6.746 0.46,-7.416 -0.158,-7.909 -0.995,-8.212 -1.46,-8.38 -1.916,-8.465 -2.349,-8.465" /></g><g
           transform="translate(325.3979,232.3779)"
           id="g136"><path
             id="path138"
             style="fill:#000000;fill-opacity:1;fill-rule:nonzero;stroke:none"
             d="m 0,0 c -0.683,0 -1.454,-0.153 -2.291,-0.456 -1.414,-0.511 -2.391,-1.219 -2.903,-2.107 -0.513,-0.884 -0.577,-1.824 -0.198,-2.873 0.378,-1.047 1.028,-1.728 1.987,-2.081 0.96,-0.353 2.165,-0.271 3.578,0.24 1.4,0.506 2.377,1.21 2.904,2.091 0.523,0.878 0.591,1.822 0.208,2.884 C 2.897,-1.23 2.241,-0.545 1.279,-0.207 0.89,-0.069 0.459,0 0,0 m -2.111,-8.232 v 0 c -0.527,0 -1.02,0.083 -1.467,0.247 -1.09,0.4 -1.859,1.201 -2.285,2.38 -0.426,1.179 -0.346,2.288 0.236,3.292 0.572,0.993 1.638,1.776 3.167,2.328 1.512,0.547 2.826,0.63 3.905,0.25 1.097,-0.386 1.874,-1.192 2.31,-2.397 C 4.186,-3.327 4.103,-4.441 3.506,-5.441 2.918,-6.426 1.854,-7.202 0.343,-7.748 -0.549,-8.069 -1.375,-8.232 -2.111,-8.232 M -0.149,1.611 -0.328,1.608 C -1.111,1.587 -1.959,1.413 -2.849,1.091 -3.753,0.765 -4.523,0.354 -5.137,-0.133 c -0.607,-0.478 -1.077,-1.026 -1.398,-1.626 -0.318,-0.595 -0.493,-1.249 -0.52,-1.945 -0.028,-0.705 0.095,-1.442 0.366,-2.192 0.278,-0.771 0.653,-1.42 1.114,-1.929 0.457,-0.506 1.012,-0.895 1.649,-1.154 0.578,-0.24 1.241,-0.361 1.971,-0.361 l 0.138,10e-4 c 0.795,0.017 1.652,0.191 2.549,0.515 0.897,0.323 1.667,0.735 2.288,1.223 0.611,0.482 1.085,1.034 1.409,1.64 0.309,0.586 0.482,1.235 0.514,1.928 0.033,0.698 -0.091,1.44 -0.367,2.206 C 4.311,-1.092 3.935,-0.448 3.459,0.086 2.989,0.612 2.439,1.005 1.825,1.251 1.224,1.49 0.559,1.611 -0.149,1.611 M -1.955,-9.84 c -0.796,0 -1.524,0.134 -2.162,0.398 -0.706,0.289 -1.321,0.719 -1.829,1.281 -0.504,0.557 -0.912,1.263 -1.214,2.096 -0.293,0.81 -0.425,1.611 -0.395,2.38 0.031,0.773 0.225,1.5 0.579,2.163 0.354,0.66 0.868,1.259 1.528,1.782 0.657,0.519 1.474,0.957 2.429,1.302 0.94,0.339 1.841,0.523 2.678,0.546 l 0.192,0.003 c 0.772,0 1.498,-0.133 2.16,-0.395 C 2.697,1.439 3.31,1.003 3.833,0.419 4.351,-0.164 4.759,-0.862 5.046,-1.657 5.345,-2.485 5.478,-3.293 5.442,-4.057 5.407,-4.822 5.215,-5.542 4.871,-6.195 4.514,-6.864 3.995,-7.469 3.329,-7.993 2.666,-8.515 1.849,-8.953 0.902,-9.295 -0.046,-9.638 -0.958,-9.82 -1.807,-9.839 Z" /></g><g
           transform="translate(328.3989,218.3135)"
           id="g140"><path
             id="path142"
             style="fill:#000000;fill-opacity:1;fill-rule:nonzero;stroke:none"
             d="M 0,0 0.458,-1.267 C 0.621,-1.719 0.804,-2.101 1,-2.401 1.184,-2.682 1.417,-2.897 1.694,-3.042 1.955,-3.173 2.218,-3.241 2.497,-3.249 h 0.004 c 0.316,0 0.641,0.068 1.01,0.202 0.288,0.104 0.526,0.246 0.709,0.424 0.176,0.169 0.294,0.387 0.361,0.666 0.06,0.237 0.068,0.499 0.025,0.78 -0.046,0.299 -0.14,0.645 -0.278,1.029 L 3.781,1.366 Z M 2.542,-3.75 H 2.541 c -0.407,0.011 -0.749,0.099 -1.075,0.263 -0.357,0.186 -0.653,0.459 -0.884,0.812 -0.218,0.332 -0.418,0.749 -0.595,1.238 L -0.64,0.301 4.082,2.007 4.798,0.021 C 4.947,-0.393 5.049,-0.77 5.1,-1.101 5.154,-1.448 5.143,-1.777 5.066,-2.077 4.979,-2.443 4.811,-2.749 4.567,-2.982 4.334,-3.209 4.036,-3.39 3.681,-3.518 3.256,-3.672 2.873,-3.75 2.542,-3.75 m -6.208,-4.028 0.473,-1.31 3.312,5.819 0.232,-0.265 c 0.5,-0.571 1.08,-0.96 1.725,-1.154 0.64,-0.192 1.347,-0.15 2.102,0.125 0.555,0.2 0.978,0.47 1.257,0.803 0.281,0.336 0.475,0.738 0.576,1.195 0.091,0.407 0.101,0.842 0.031,1.295 C 5.97,-0.804 5.813,-0.235 5.576,0.421 L 4.53,3.317 -6.266,-0.581 l 0.368,-1.017 4.48,1.619 0.881,-2.442 z m 0.372,-2.499 -0.922,2.549 3.129,5.358 -0.632,1.75 -4.48,-1.618 L -6.905,-0.28 4.831,3.958 6.046,0.591 C 6.294,-0.096 6.459,-0.695 6.537,-1.193 6.616,-1.708 6.604,-2.206 6.5,-2.674 6.38,-3.21 6.151,-3.684 5.818,-4.081 5.482,-4.482 4.987,-4.804 4.348,-5.034 3.49,-5.345 2.675,-5.389 1.933,-5.166 1.297,-4.976 0.72,-4.623 0.212,-4.117 Z" /></g><g
           transform="translate(333.8477,209.4541)"
           id="g144"><path
             id="path146"
             style="fill:#000000;fill-opacity:1;fill-rule:nonzero;stroke:none"
             d="M 0,0 C -0.762,0 -1.583,-0.157 -2.44,-0.467 -3.393,-0.811 -4.182,-1.25 -4.787,-1.772 -5.388,-2.29 -5.838,-2.885 -6.125,-3.54 c -0.284,-0.652 -0.418,-1.372 -0.397,-2.141 0.018,-0.785 0.182,-1.608 0.486,-2.449 0.237,-0.653 0.586,-1.3 1.039,-1.923 0.429,-0.59 0.873,-1.125 1.324,-1.593 l 4.449,1.607 -1.444,3.998 -0.846,-0.306 1.083,-2.996 -3.153,-1.137 -0.113,0.121 c -0.293,0.316 -0.581,0.708 -0.855,1.164 -0.278,0.459 -0.508,0.94 -0.684,1.43 -0.496,1.374 -0.462,2.635 0.103,3.746 0.561,1.107 1.613,1.946 3.127,2.493 1.434,0.517 2.735,0.547 3.861,0.089 C 2.992,-1.899 3.808,-2.8 4.283,-4.114 4.487,-4.677 4.62,-5.216 4.68,-5.717 4.735,-6.214 4.747,-6.673 4.715,-7.082 4.686,-7.427 4.624,-7.792 4.531,-8.171 4.478,-8.384 4.43,-8.569 4.386,-8.728 l 1.263,0.457 c 0.075,0.816 0.073,1.56 -0.005,2.216 C 5.56,-5.356 5.405,-4.691 5.184,-4.078 4.552,-2.329 3.547,-1.119 2.197,-0.484 1.515,-0.163 0.776,0 0,0 m -3.805,-12.225 -0.112,0.114 c -0.506,0.512 -1.006,1.105 -1.484,1.763 -0.481,0.662 -0.853,1.351 -1.105,2.048 -0.323,0.892 -0.496,1.769 -0.516,2.607 -0.022,0.84 0.126,1.633 0.439,2.353 0.317,0.725 0.812,1.38 1.47,1.946 0.651,0.563 1.493,1.033 2.503,1.398 1.855,0.67 3.548,0.657 5.02,-0.035 C 3.884,-0.726 4.976,-2.029 5.654,-3.908 5.888,-4.558 6.052,-5.26 6.14,-5.996 6.228,-6.729 6.225,-7.564 6.131,-8.478 L 6.116,-8.634 3.954,-9.415 3.791,-8.963 3.818,-8.881 c 0.064,0.194 0.139,0.472 0.227,0.83 0.087,0.353 0.144,0.693 0.172,1.01 0.029,0.376 0.018,0.803 -0.034,1.268 -0.055,0.46 -0.18,0.961 -0.37,1.489 -0.431,1.192 -1.133,1.971 -2.146,2.385 -1.012,0.412 -2.188,0.378 -3.503,-0.098 -1.39,-0.502 -2.349,-1.259 -2.851,-2.248 -0.5,-0.984 -0.526,-2.11 -0.079,-3.35 0.165,-0.46 0.381,-0.911 0.642,-1.343 0.222,-0.369 0.452,-0.69 0.684,-0.959 l 2.369,0.855 -1.083,2.996 1.787,0.646 1.784,-4.94 z" /></g><g
           transform="translate(377.498,227.0674)"
           id="g148"><path
             id="path150"
             style="fill:#000000;fill-opacity:1;fill-rule:nonzero;stroke:none"
             d="m 0,0 -1.175,-0.242 -0.895,4.357 -4.409,-0.906 0.895,-4.357 -1.175,-0.243 -1.83,8.902 1.175,0.241 0.718,-3.49 4.409,0.906 -0.718,3.491 1.175,0.241 z" /></g><g
           transform="translate(384.5566,232.1631)"
           id="g152"><path
             id="path154"
             style="fill:#000000;fill-opacity:1;fill-rule:nonzero;stroke:none"
             d="m 0,0 -2.447,4.052 -0.657,-4.69 z M 3.199,-2.986 1.948,-3.244 0.571,-0.941 -3.251,-1.728 -3.606,-4.387 -4.8,-4.632 l 1.386,9.564 1.567,0.321 z" /></g><g
           transform="translate(397.8262,240.5254)"
           id="g156"><path
             id="path158"
             style="fill:#000000;fill-opacity:1;fill-rule:nonzero;stroke:none"
             d="m 0,0 -0.466,-9.374 -1.323,-0.272 -3.377,7.006 -0.296,-7.761 -1.294,-0.266 -4.168,8.42 1.204,0.248 3.379,-7.02 0.306,7.778 1.193,0.245 3.382,-7.093 0.31,7.852 z" /></g><g
           transform="translate(405.417,232.8086)"
           id="g160"><path
             id="path162"
             style="fill:#000000;fill-opacity:1;fill-rule:nonzero;stroke:none"
             d="M 0,0 -3.489,-0.718 -3.676,0.19 -2.52,0.429 -3.977,7.513 -5.133,7.274 -5.32,8.184 -1.831,8.901 -1.645,7.992 -2.801,7.754 -1.344,0.67 -0.188,0.908 Z" /></g><g
           transform="translate(412.293,237.8672)"
           id="g164"><path
             id="path166"
             style="fill:#000000;fill-opacity:1;fill-rule:nonzero;stroke:none"
             d="m 0,0 -2.447,4.052 -0.657,-4.69 z M 3.2,-2.986 1.948,-3.244 0.571,-0.941 -3.25,-1.728 -3.606,-4.387 -4.8,-4.632 l 1.387,9.564 1.566,0.321 z" /></g><g
           transform="translate(420.999,242.6797)"
           id="g168"><path
             id="path170"
             style="fill:#000000;fill-opacity:1;fill-rule:nonzero;stroke:none"
             d="M 0,0 C -0.053,0.255 -0.144,0.473 -0.273,0.651 -0.402,0.831 -0.584,0.967 -0.818,1.06 -1.012,1.141 -1.23,1.18 -1.473,1.178 -1.716,1.176 -1.995,1.143 -2.312,1.077 l -1.382,-0.284 0.69,-3.36 1.188,0.244 c 0.372,0.076 0.689,0.176 0.953,0.299 0.262,0.122 0.472,0.294 0.63,0.513 0.143,0.203 0.235,0.423 0.276,0.657 C 0.083,-0.618 0.069,-0.335 0,0 m 4.063,-5.831 -1.525,-0.314 -3.683,2.932 -1.656,-0.341 0.728,-3.539 -1.175,-0.242 -1.83,8.901 2.474,0.51 c 0.535,0.11 0.987,0.167 1.357,0.17 C -0.877,2.25 -0.53,2.19 -0.209,2.069 0.153,1.933 0.456,1.728 0.699,1.456 0.943,1.184 1.113,0.812 1.211,0.337 1.344,-0.305 1.293,-0.875 1.062,-1.373 0.83,-1.872 0.456,-2.288 -0.061,-2.623 Z" /></g><g
           transform="translate(433.1582,241.1611)"
           id="g172"><path
             id="path174"
             style="fill:#000000;fill-opacity:1;fill-rule:nonzero;stroke:none"
             d="m 0,0 c 0.071,-0.346 0.063,-0.706 -0.028,-1.078 -0.091,-0.371 -0.257,-0.704 -0.497,-0.998 -0.264,-0.32 -0.592,-0.597 -0.984,-0.826 -0.391,-0.23 -0.885,-0.407 -1.478,-0.529 -0.637,-0.131 -1.222,-0.188 -1.754,-0.173 -0.533,0.015 -1.087,0.085 -1.661,0.212 l -0.306,1.483 0.084,0.017 c 0.523,-0.283 1.1,-0.465 1.727,-0.547 0.626,-0.084 1.198,-0.073 1.711,0.034 0.729,0.149 1.267,0.403 1.617,0.761 0.348,0.359 0.475,0.768 0.381,1.226 -0.081,0.395 -0.237,0.665 -0.467,0.814 -0.231,0.148 -0.552,0.233 -0.965,0.256 -0.314,0.018 -0.649,0.019 -1.005,-0.001 -0.356,-0.02 -0.737,-0.03 -1.142,-0.029 -0.817,0.006 -1.457,0.173 -1.918,0.499 -0.461,0.326 -0.757,0.816 -0.891,1.466 -0.153,0.745 0.033,1.419 0.56,2.024 0.528,0.606 1.272,1.006 2.233,1.203 0.621,0.128 1.203,0.187 1.746,0.172 0.543,-0.011 1.032,-0.065 1.468,-0.158 L -1.282,4.43 -1.365,4.413 C -1.761,4.631 -2.251,4.776 -2.838,4.853 -3.425,4.93 -4.005,4.909 -4.579,4.791 -5.208,4.662 -5.687,4.427 -6.014,4.086 -6.342,3.743 -6.463,3.366 -6.378,2.951 -6.302,2.581 -6.146,2.31 -5.913,2.137 -5.68,1.965 -5.313,1.871 -4.811,1.859 -4.546,1.855 -4.172,1.86 -3.689,1.878 -3.206,1.895 -2.793,1.893 -2.451,1.877 -1.759,1.836 -1.21,1.673 -0.805,1.387 -0.399,1.101 -0.131,0.639 0,0" /></g><g
           transform="translate(443.4561,240.6318)"
           id="g176"><path
             id="path178"
             style="fill:#000000;fill-opacity:1;fill-rule:nonzero;stroke:none"
             d="M 0,0 -1.524,-0.313 -5.835,2.932 -6.52,1.805 -5.898,-1.213 -7.073,-1.455 -8.904,7.446 -7.729,7.688 -6.774,3.043 -3.438,8.57 -2.015,8.863 -5.1,3.867 Z" /></g><g
           transform="translate(449.9902,245.6201)"
           id="g180"><path
             id="path182"
             style="fill:#000000;fill-opacity:1;fill-rule:nonzero;stroke:none"
             d="m 0,0 -2.447,4.052 -0.657,-4.69 z M 3.2,-2.986 1.948,-3.244 0.571,-0.941 -3.25,-1.728 -3.606,-4.387 -4.8,-4.632 l 1.386,9.563 1.567,0.322 z" /></g><g
           transform="translate(369.2046,234.3838)"
           id="g184"><path
             id="path186"
             style="fill:#000000;fill-opacity:1;fill-rule:nonzero;stroke:none"
             d="m 0,0 1.729,-8.412 0.685,0.141 -0.895,4.358 4.898,1.007 0.896,-4.358 0.685,0.142 L 6.269,1.289 5.584,1.148 6.302,-2.343 1.403,-3.35 0.685,0.141 Z M 1.34,-9.002 -0.591,0.389 1.074,0.73 1.792,-2.76 5.711,-1.954 4.993,1.537 6.658,1.879 8.589,-7.511 6.924,-7.854 6.029,-3.496 2.109,-4.302 3.005,-8.659 Z" /></g><g
           transform="translate(382.2593,235.4834)"
           id="g188"><path
             id="path190"
             style="fill:#000000;fill-opacity:1;fill-rule:nonzero;stroke:none"
             d="M 0,0 -0.509,-3.642 1.9,-3.146 Z M -1.103,-4.274 -0.3,1.463 2.694,-3.494 Z m 0.208,5.675 -1.309,-9.037 0.671,0.138 0.355,2.659 4.17,0.858 1.377,-2.303 0.729,0.15 -4.769,7.786 z m -1.906,-9.67 1.462,10.09 1.911,0.392 5.324,-8.692 -1.774,-0.366 -1.377,2.303 -3.474,-0.715 -0.356,-2.659 z" /></g><g
           transform="translate(387.27,238.0986)"
           id="g192"><path
             id="path194"
             style="fill:#000000;fill-opacity:1;fill-rule:nonzero;stroke:none"
             d="M 0,0 3.939,-7.957 4.852,-7.77 5.14,-0.203 5.615,-0.104 8.908,-6.935 9.85,-6.741 10.291,2.116 9.648,1.984 9.346,-5.672 8.871,-5.77 5.573,1.146 4.763,0.98 4.465,-6.602 3.99,-6.7 0.696,0.144 Z m 3.662,-8.523 -4.397,8.882 1.712,0.353 3.028,-6.29 0.274,6.969 1.577,0.324 3.03,-6.356 0.278,7.036 1.658,0.342 -0.491,-9.89 -1.705,-0.35 -3.024,6.275 -0.266,-6.952 z" /></g><g
           transform="translate(402.0361,232.8047)"
           id="g196"><path
             id="path198"
             style="fill:#000000;fill-opacity:1;fill-rule:nonzero;stroke:none"
             d="M 0,0 0.086,-0.419 3.085,0.198 2.999,0.617 1.843,0.379 0.285,7.952 1.441,8.19 1.355,8.61 -1.644,7.993 -1.558,7.573 -0.401,7.812 1.157,0.238 Z M -0.303,-1.009 -0.59,0.389 0.566,0.627 -0.79,7.222 -1.946,6.983 -2.235,8.382 1.745,9.2 2.031,7.802 0.875,7.563 2.231,0.969 3.388,1.207 3.676,-0.19 Z" /></g><g
           transform="translate(409.9956,241.1875)"
           id="g200"><path
             id="path202"
             style="fill:#000000;fill-opacity:1;fill-rule:nonzero;stroke:none"
             d="M 0,0 -0.509,-3.642 1.9,-3.146 Z M -1.103,-4.274 -0.3,1.463 2.694,-3.494 Z m 0.209,5.675 -1.31,-9.037 0.671,0.138 0.356,2.659 4.169,0.858 1.377,-2.303 0.73,0.15 -4.77,7.786 z m -1.907,-9.67 1.463,10.09 1.91,0.392 5.325,-8.692 -1.775,-0.366 -1.377,2.303 -3.474,-0.715 -0.356,-2.659 z" /></g><g
           transform="translate(417.6001,243.2783)"
           id="g204"><path
             id="path206"
             style="fill:#000000;fill-opacity:1;fill-rule:nonzero;stroke:none"
             d="m 0,0 0.589,-2.871 0.943,0.194 c 0.351,0.072 0.653,0.166 0.898,0.281 0.221,0.102 0.401,0.248 0.532,0.432 0.12,0.17 0.199,0.357 0.234,0.555 0.034,0.203 0.02,0.459 -0.042,0.76 -0.046,0.22 -0.123,0.407 -0.231,0.554 C 2.821,0.048 2.68,0.153 2.489,0.229 2.328,0.296 2.146,0.329 1.943,0.329 v 0.25 L 1.928,0.329 C 1.701,0.327 1.436,0.295 1.138,0.233 Z m 0.201,-3.461 -0.792,3.85 1.628,0.335 C 1.366,0.791 1.665,0.827 1.924,0.829 H 1.943 C 2.212,0.829 2.459,0.783 2.677,0.691 2.952,0.583 3.172,0.416 3.329,0.198 3.478,-0.006 3.583,-0.258 3.644,-0.548 3.72,-0.915 3.734,-1.225 3.688,-1.494 3.641,-1.767 3.534,-2.021 3.37,-2.254 3.186,-2.51 2.941,-2.71 2.641,-2.85 2.361,-2.98 2.021,-3.087 1.633,-3.167 Z m -1.585,4.234 1.729,-8.412 0.685,0.142 -0.727,3.539 2.015,0.415 3.683,-2.932 0.879,0.181 -3.973,3.091 0.295,0.191 c 0.475,0.308 0.822,0.693 1.032,1.146 0.208,0.447 0.252,0.97 0.131,1.553 C 4.277,0.116 4.125,0.453 3.912,0.69 3.696,0.932 3.423,1.115 3.102,1.236 2.818,1.344 2.51,1.397 2.186,1.397 1.807,1.395 1.366,1.339 0.846,1.232 Z m 1.341,-9.002 -1.932,9.391 2.72,0.561 c 0.561,0.114 1.02,0.172 1.405,0.174 h 0.002 c 0.42,0 0.787,-0.064 1.126,-0.192 C 3.676,1.555 4.015,1.325 4.284,1.024 4.557,0.721 4.749,0.305 4.855,-0.211 4.998,-0.902 4.941,-1.53 4.687,-2.077 4.482,-2.521 4.169,-2.907 3.757,-3.23 L 8.044,-6.565 5.873,-7.012 2.19,-4.08 0.894,-4.347 1.621,-7.886 Z" /></g><g
           transform="translate(426.9678,237.9805)"
           id="g208"><path
             id="path210"
             style="fill:#000000;fill-opacity:1;fill-rule:nonzero;stroke:none"
             d="m 0,0 c 0.498,-0.102 0.987,-0.16 1.457,-0.174 l 0.155,-0.002 c 0.471,0 0.989,0.058 1.54,0.171 C 3.716,0.11 4.188,0.278 4.556,0.494 4.919,0.707 5.228,0.966 5.472,1.264 5.688,1.526 5.838,1.829 5.919,2.162 6.001,2.495 6.01,2.82 5.945,3.13 5.828,3.701 5.592,4.116 5.241,4.363 4.877,4.62 4.367,4.77 3.725,4.808 3.396,4.822 2.984,4.824 2.51,4.809 2.126,4.795 1.811,4.789 1.563,4.789 L 1.376,4.79 C 0.816,4.803 0.409,4.91 0.129,5.116 -0.155,5.326 -0.344,5.651 -0.433,6.081 -0.534,6.579 -0.39,7.036 -0.004,7.439 0.358,7.816 0.885,8.078 1.562,8.217 2.158,8.34 2.773,8.361 3.385,8.281 3.832,8.223 4.23,8.124 4.576,7.986 L 4.409,8.796 C 4.027,8.866 3.604,8.907 3.147,8.917 L 2.989,8.919 C 2.517,8.919 2.002,8.862 1.458,8.75 0.556,8.565 -0.149,8.188 -0.637,7.628 -1.114,7.08 -1.278,6.488 -1.141,5.818 -1.019,5.226 -0.76,4.796 -0.35,4.506 0.067,4.211 0.665,4.059 1.426,4.053 H 1.43 c 0.429,0 0.786,0.01 1.121,0.029 0.367,0.02 0.711,0.019 1.033,0.001 C 4.047,4.057 4.401,3.96 4.671,3.786 4.959,3.601 5.153,3.273 5.248,2.813 5.359,2.271 5.208,1.782 4.801,1.362 4.416,0.969 3.829,0.689 3.055,0.53 2.516,0.419 1.91,0.407 1.26,0.493 0.749,0.561 0.265,0.693 -0.184,0.889 Z m 1.612,-0.676 -0.17,0.002 c -0.549,0.017 -1.125,0.09 -1.708,0.219 l -0.158,0.035 -0.389,1.885 0.417,0.088 0.082,-0.044 C 0.179,1.242 0.731,1.066 1.325,0.989 1.923,0.91 2.471,0.918 2.954,1.021 3.629,1.158 4.13,1.392 4.442,1.712 4.731,2.009 4.835,2.337 4.758,2.713 4.691,3.036 4.571,3.256 4.399,3.366 4.208,3.489 3.925,3.563 3.556,3.583 3.253,3.601 2.927,3.602 2.579,3.582 2.235,3.563 1.867,3.553 1.479,3.553 0.557,3.559 -0.137,3.742 -0.639,4.098 -1.15,4.46 -1.484,5.005 -1.631,5.717 -1.8,6.539 -1.592,7.292 -1.014,7.956 -0.453,8.601 0.345,9.032 1.357,9.24 1.935,9.359 2.483,9.419 2.989,9.419 L 3.16,9.417 C 3.71,9.405 4.22,9.35 4.673,9.253 L 4.833,9.22 5.204,7.414 4.784,7.331 4.705,7.375 C 4.341,7.575 3.875,7.713 3.32,7.785 2.763,7.858 2.207,7.839 1.662,7.727 1.086,7.608 0.647,7.396 0.357,7.094 0.088,6.812 -0.011,6.514 0.058,6.182 0.12,5.876 0.244,5.653 0.426,5.519 0.615,5.379 0.947,5.3 1.386,5.29 L 1.563,5.289 c 0.243,0 0.552,0.006 0.929,0.02 C 2.985,5.325 3.402,5.322 3.751,5.308 4.491,5.264 5.089,5.083 5.53,4.771 5.987,4.448 6.292,3.931 6.436,3.23 6.515,2.849 6.504,2.449 6.405,2.043 6.306,1.638 6.122,1.269 5.858,0.946 5.575,0.603 5.223,0.306 4.808,0.063 4.394,-0.181 3.87,-0.368 3.254,-0.495 2.669,-0.615 2.116,-0.676 1.612,-0.676" /></g><g
           transform="translate(434.8467,247.8838)"
           id="g212"><path
             id="path214"
             style="fill:#000000;fill-opacity:1;fill-rule:nonzero;stroke:none"
             d="m 0,0 1.73,-8.412 0.686,0.141 -0.591,2.87 0.879,1.447 4.442,-3.344 0.874,0.18 L 3.178,-3.446 6.077,1.25 5.328,1.096 1.719,-4.886 0.686,0.141 Z M 1.342,-9.002 -0.59,0.389 1.074,0.73 1.951,-3.532 5.014,1.541 7.112,1.973 3.842,-3.323 9.199,-7.386 7.024,-7.833 2.845,-4.687 2.354,-5.493 3.006,-8.659 Z" /></g><g
           transform="translate(447.6934,248.9404)"
           id="g216"><path
             id="path218"
             style="fill:#000000;fill-opacity:1;fill-rule:nonzero;stroke:none"
             d="m 0,0 -0.51,-3.642 2.41,0.496 z m -1.104,-4.274 0.803,5.737 2.994,-4.957 z m 0.209,5.674 -1.309,-9.036 0.67,0.138 0.356,2.659 4.169,0.858 1.377,-2.303 0.73,0.15 -4.769,7.786 z M -2.802,-8.269 -1.34,1.82 0.571,2.213 5.896,-6.479 4.122,-6.845 2.745,-4.542 -0.729,-5.257 -1.085,-7.916 Z" /></g><g
           transform="translate(354.6841,203.1943)"
           id="g220"><path
             id="path222"
             style="fill:#000000;fill-opacity:1;fill-rule:nonzero;stroke:none"
             d="M 0,0 -1.532,0.275 -4.329,4.889 -5.382,4.098 -5.927,1.064 -7.107,1.275 -5.5,10.221 -4.32,10.008 -5.159,5.342 -0.009,9.234 1.422,8.977 -3.299,5.484 Z" /></g><g
           transform="translate(363.6064,206.2041)"
           id="g224"><path
             id="path226"
             style="fill:#000000;fill-opacity:1;fill-rule:nonzero;stroke:none"
             d="M 0,0 C 0.209,1.162 0.111,2.105 -0.292,2.828 -0.695,3.551 -1.345,3.994 -2.239,4.154 -3.142,4.316 -3.907,4.129 -4.535,3.59 -5.163,3.053 -5.581,2.201 -5.79,1.041 -6,-0.133 -5.899,-1.078 -5.487,-1.795 c 0.413,-0.717 1.061,-1.154 1.944,-1.314 0.882,-0.159 1.641,0.027 2.275,0.556 C -0.633,-2.023 -0.21,-1.174 0,0 M 0.727,3.43 C 1.017,2.965 1.206,2.424 1.294,1.809 1.383,1.193 1.361,0.518 1.229,-0.221 1.096,-0.957 0.879,-1.6 0.578,-2.146 0.276,-2.693 -0.086,-3.131 -0.51,-3.455 c -0.438,-0.338 -0.925,-0.566 -1.461,-0.68 -0.535,-0.115 -1.123,-0.115 -1.763,0 -0.624,0.112 -1.173,0.319 -1.646,0.617 -0.474,0.301 -0.853,0.682 -1.141,1.143 -0.286,0.461 -0.474,0.998 -0.563,1.607 -0.089,0.614 -0.067,1.288 0.066,2.03 0.131,0.728 0.344,1.365 0.639,1.91 0.294,0.545 0.662,0.988 1.101,1.336 0.421,0.33 0.909,0.553 1.465,0.668 0.556,0.115 1.14,0.117 1.752,0.006 C -1.424,5.068 -0.872,4.861 -0.402,4.561 0.066,4.258 0.443,3.883 0.727,3.43" /></g><g
           transform="translate(372.3677,200.0166)"
           id="g228"><path
             id="path230"
             style="fill:#000000;fill-opacity:1;fill-rule:nonzero;stroke:none"
             d="M 0,0 -5.617,1.01 -4.01,9.953 -2.83,9.742 -4.247,1.855 0.19,1.059 Z" /></g><g
           transform="translate(377.876,199.0283)"
           id="g232"><path
             id="path234"
             style="fill:#000000;fill-opacity:1;fill-rule:nonzero;stroke:none"
             d="M 0,0 -3.506,0.629 -3.342,1.543 -2.18,1.334 -0.901,8.451 -2.063,8.66 -1.899,9.574 1.606,8.943 1.442,8.031 0.28,8.24 -0.999,1.121 0.164,0.912 Z" /></g><g
           transform="translate(386.4409,204.4893)"
           id="g236"><path
             id="path238"
             style="fill:#000000;fill-opacity:1;fill-rule:nonzero;stroke:none"
             d="M 0,0 C 0.039,0.217 0.036,0.406 -0.009,0.566 -0.054,0.729 -0.148,0.869 -0.291,0.99 -0.458,1.131 -0.672,1.238 -0.934,1.313 -1.196,1.387 -1.523,1.459 -1.917,1.529 l -1.407,0.254 -0.464,-2.584 1.526,-0.273 c 0.37,-0.067 0.667,-0.102 0.893,-0.102 0.225,-0.002 0.443,0.041 0.651,0.129 0.208,0.086 0.368,0.217 0.48,0.393 C -0.126,-0.477 -0.047,-0.26 0,0 m 0.024,-4.213 c 0.065,0.359 0.063,0.654 -0.006,0.887 -0.07,0.232 -0.232,0.447 -0.488,0.646 -0.173,0.133 -0.392,0.241 -0.659,0.321 -0.267,0.078 -0.595,0.152 -0.985,0.222 l -1.854,0.334 -0.598,-3.33 1.562,-0.281 c 0.517,-0.092 0.945,-0.141 1.285,-0.145 0.34,-0.005 0.627,0.045 0.864,0.151 0.251,0.117 0.446,0.265 0.585,0.447 0.14,0.182 0.237,0.43 0.294,0.748 M 1.261,-4.387 C 1.181,-4.832 1.028,-5.207 0.799,-5.52 0.571,-5.83 0.296,-6.07 -0.025,-6.238 -0.407,-6.443 -0.807,-6.566 -1.227,-6.605 -1.647,-6.646 -2.165,-6.611 -2.781,-6.5 l -3.148,0.564 1.606,8.946 2.63,-0.473 C -1.044,2.42 -0.564,2.311 -0.251,2.205 0.063,2.098 0.353,1.943 0.62,1.738 0.915,1.508 1.111,1.242 1.21,0.945 1.308,0.65 1.324,0.313 1.256,-0.063 1.18,-0.488 1.008,-0.83 0.739,-1.09 0.471,-1.35 0.142,-1.537 -0.248,-1.652 L -0.257,-1.701 C 0.321,-1.934 0.747,-2.285 1.02,-2.752 1.292,-3.221 1.373,-3.766 1.261,-4.387" /></g><g
           transform="translate(394.9385,199.5889)"
           id="g240"><path
             id="path242"
             style="fill:#000000;fill-opacity:1;fill-rule:nonzero;stroke:none"
             d="m 0,0 -0.768,4.674 -2.35,-4.113 z m 1.861,-3.961 -1.257,0.227 -0.423,2.648 -3.84,0.691 -1.319,-2.337 -1.198,0.214 4.838,8.366 1.574,-0.284 z" /></g><g
           transform="translate(353.3071,203.6963)"
           id="g244"><path
             id="path246"
             style="fill:#000000;fill-opacity:1;fill-rule:nonzero;stroke:none"
             d="M 0,0 0.878,-0.158 -2.253,5.048 2.185,8.331 1.431,8.467 -4.141,4.255 -3.233,9.304 -3.922,9.429 -5.44,0.976 l 0.688,-0.123 0.518,2.883 1.353,1.016 z m 1.875,-0.846 -2.186,0.393 -2.712,4.474 -0.754,-0.566 -0.572,-3.183 -1.672,0.299 1.696,9.438 1.672,-0.301 -0.77,-4.283 4.727,3.573 2.11,-0.38 -5.004,-3.701 z" /></g><g
           transform="translate(360.7622,210.165)"
           id="g248"><path
             id="path250"
             style="fill:#000000;fill-opacity:1;fill-rule:nonzero;stroke:none"
             d="m 0,0 c -0.588,0 -1.088,-0.184 -1.528,-0.561 -0.58,-0.496 -0.974,-1.304 -1.171,-2.403 -0.199,-1.108 -0.108,-2.006 0.273,-2.667 0.378,-0.655 0.957,-1.046 1.771,-1.193 0.812,-0.145 1.491,0.017 2.072,0.503 0.585,0.488 0.983,1.298 1.181,2.404 0.198,1.099 0.109,1.994 -0.264,2.662 C 1.965,-0.594 1.385,-0.2 0.562,-0.053 0.368,-0.018 0.179,0 0,0 m -0.11,-7.375 c -0.203,0 -0.417,0.02 -0.633,0.059 -0.955,0.173 -1.667,0.656 -2.116,1.435 -0.441,0.767 -0.553,1.777 -0.332,3.005 0.218,1.216 0.669,2.122 1.338,2.695 0.682,0.585 1.53,0.796 2.502,0.62 C 1.617,0.267 2.33,-0.222 2.771,-1.011 3.201,-1.782 3.309,-2.79 3.09,-4.005 2.871,-5.231 2.415,-6.14 1.737,-6.706 1.204,-7.149 0.583,-7.375 -0.11,-7.375 m 0.011,8.428 c -0.278,0 -0.554,-0.028 -0.819,-0.083 -0.516,-0.107 -0.974,-0.316 -1.361,-0.619 -0.413,-0.328 -0.762,-0.75 -1.036,-1.259 -0.281,-0.519 -0.487,-1.137 -0.613,-1.835 -0.127,-0.71 -0.149,-1.365 -0.064,-1.949 0.084,-0.574 0.262,-1.082 0.528,-1.512 0.266,-0.427 0.624,-0.785 1.062,-1.064 0.445,-0.281 0.969,-0.477 1.556,-0.582 0.604,-0.107 1.166,-0.109 1.667,-0.002 0.493,0.105 0.951,0.318 1.361,0.634 0.393,0.301 0.736,0.715 1.021,1.232 0.287,0.519 0.497,1.141 0.624,1.848 0.127,0.708 0.148,1.365 0.064,1.95 -0.083,0.58 -0.263,1.092 -0.532,1.524 C 3.098,-0.248 2.744,0.106 2.306,0.39 1.868,0.671 1.34,0.867 0.74,0.975 0.454,1.026 0.172,1.053 -0.099,1.053 m 0.13,-9.485 c -0.307,0 -0.632,0.031 -0.966,0.09 -0.649,0.116 -1.233,0.335 -1.734,0.653 -0.503,0.319 -0.914,0.729 -1.22,1.221 -0.302,0.489 -0.504,1.061 -0.598,1.703 -0.093,0.638 -0.07,1.347 0.067,2.11 0.135,0.752 0.359,1.419 0.665,1.985 0.307,0.568 0.699,1.044 1.166,1.413 0.45,0.353 0.978,0.594 1.569,0.717 0.586,0.121 1.207,0.122 1.849,0.007 C 1.493,1.349 2.082,1.127 2.577,0.811 3.078,0.486 3.483,0.08 3.783,-0.398 4.089,-0.891 4.292,-1.468 4.386,-2.116 4.478,-2.755 4.455,-3.465 4.319,-4.226 4.182,-4.987 3.954,-5.661 3.641,-6.229 3.323,-6.806 2.935,-7.271 2.486,-7.614 2.017,-7.977 1.492,-8.221 0.925,-8.34 0.643,-8.401 0.341,-8.432 0.031,-8.432" /></g><g
           transform="translate(367.041,201.2285)"
           id="g252"><path
             id="path254"
             style="fill:#000000;fill-opacity:1;fill-rule:nonzero;stroke:none"
             d="M 0,0 5.125,-0.922 5.227,-0.355 0.79,0.441 2.207,8.328 1.519,8.451 Z M 5.528,-1.502 -0.58,-0.404 1.115,9.031 2.788,8.732 1.37,0.846 5.807,0.049 Z" /></g><g
           transform="translate(374.6597,199.8594)"
           id="g256"><path
             id="path258"
             style="fill:#000000;fill-opacity:1;fill-rule:nonzero;stroke:none"
             d="M 0,0 3.015,-0.541 3.09,-0.121 1.927,0.088 3.294,7.699 4.457,7.49 4.532,7.91 1.519,8.453 1.443,8.031 2.605,7.822 1.238,0.213 0.076,0.422 Z M 3.418,-1.121 -0.58,-0.404 -0.328,1.002 0.835,0.793 2.025,7.418 0.863,7.627 1.115,9.033 5.113,8.314 4.86,6.91 3.698,7.119 2.507,0.492 3.671,0.283 Z" /></g><g
           transform="translate(382.9429,203.8906)"
           id="g260"><path
             id="path262"
             style="fill:#000000;fill-opacity:1;fill-rule:nonzero;stroke:none"
             d="m 0,0 1.28,-0.229 c 0.366,-0.066 0.644,-0.098 0.849,-0.098 v 0 c 0.201,0 0.382,0.037 0.554,0.109 0.163,0.068 0.282,0.164 0.366,0.296 C 3.143,0.229 3.211,0.419 3.252,0.643 3.284,0.821 3.283,0.975 3.248,1.098 3.216,1.211 3.15,1.31 3.046,1.398 2.908,1.515 2.723,1.606 2.496,1.671 2.244,1.742 1.921,1.813 1.538,1.882 l -1.163,0.21 z m 2.144,-0.827 v 0 c -0.25,0 -0.557,0.034 -0.952,0.105 L -0.58,-0.404 -0.028,2.672 1.626,2.374 C 2.025,2.303 2.364,2.228 2.632,2.151 2.927,2.068 3.175,1.943 3.369,1.78 3.55,1.626 3.671,1.441 3.729,1.231 3.784,1.037 3.79,0.809 3.744,0.555 3.692,0.267 3.601,0.017 3.472,-0.188 3.332,-0.409 3.131,-0.574 2.875,-0.68 2.644,-0.777 2.397,-0.827 2.144,-0.827 m -2.922,-3.505 1.317,-0.237 c 0.503,-0.09 0.922,-0.137 1.243,-0.141 0.322,0.03 0.567,0.043 0.76,0.129 0.209,0.098 0.375,0.223 0.488,0.371 0.114,0.148 0.197,0.363 0.246,0.64 0.057,0.319 0.057,0.579 0,0.771 -0.054,0.18 -0.189,0.355 -0.401,0.521 C 2.727,-2.164 2.532,-2.07 2.297,-2 2.042,-1.926 1.719,-1.853 1.34,-1.784 l -1.609,0.29 z M 1.831,-5.21 v 0 C 1.423,-5.206 0.989,-5.157 0.45,-5.062 l -1.808,0.326 0.686,3.822 2.101,-0.378 C 1.825,-1.363 2.165,-1.44 2.439,-1.521 2.734,-1.609 2.983,-1.73 3.181,-1.883 3.479,-2.114 3.671,-2.374 3.755,-2.656 3.836,-2.928 3.841,-3.256 3.769,-3.658 3.704,-4.02 3.592,-4.299 3.426,-4.515 3.264,-4.727 3.036,-4.902 2.749,-5.036 2.488,-5.152 2.181,-5.21 1.831,-5.21 m -3.972,0.075 2.902,-0.52 c 0.59,-0.107 1.088,-0.143 1.486,-0.103 0.383,0.035 0.755,0.15 1.107,0.339 0.288,0.149 0.537,0.367 0.742,0.647 0.207,0.283 0.343,0.62 0.417,1.028 0.102,0.566 0.032,1.046 -0.212,1.465 -0.243,0.417 -0.632,0.735 -1.153,0.945 l -0.189,0.075 0.063,0.353 0.157,0.093 c 0.349,0.102 0.647,0.271 0.884,0.501 C 4.295,-0.088 4.44,0.204 4.508,0.58 4.568,0.913 4.556,1.211 4.471,1.465 4.387,1.715 4.217,1.942 3.964,2.14 3.724,2.324 3.455,2.468 3.166,2.567 2.871,2.667 2.411,2.772 1.761,2.89 l -2.384,0.428 z m 4.052,-1.138 c -0.359,0 -0.775,0.042 -1.238,0.126 L -2.721,-5.539 -1.026,3.898 1.85,3.382 C 2.524,3.26 3.008,3.148 3.327,3.041 3.668,2.924 3.985,2.754 4.27,2.535 4.604,2.274 4.83,1.969 4.945,1.623 5.057,1.288 5.075,0.908 5,0.492 4.915,0.016 4.716,-0.376 4.411,-0.671 4.233,-0.843 4.03,-0.987 3.804,-1.103 4.201,-1.34 4.513,-1.649 4.733,-2.027 5.036,-2.547 5.127,-3.154 5.005,-3.832 4.919,-4.311 4.749,-4.727 4.499,-5.068 4.249,-5.41 3.942,-5.677 3.588,-5.861 3.18,-6.081 2.743,-6.214 2.294,-6.256 2.175,-6.268 2.046,-6.273 1.911,-6.273" /></g><g
           transform="translate(392.2129,200.333)"
           id="g264"><path
             id="path266"
             style="fill:#000000;fill-opacity:1;fill-rule:nonzero;stroke:none"
             d="m 0,0 2.421,-0.436 -0.595,3.63 z m 3.03,-1.053 -3.815,0.686 2.875,5.032 z m 0.518,-3.211 0.733,-0.132 -1.536,9.001 -1.229,0.221 -4.572,-7.904 0.673,-0.121 1.319,2.338 4.189,-0.754 z m 1.345,-0.751 -1.783,0.322 -0.422,2.648 -3.491,0.629 -1.319,-2.338 -1.723,0.309 5.104,8.826 1.92,-0.346 z" /></g><g
           transform="translate(347.0669,191.4707)"
           id="g268"><path
             id="path270"
             style="fill:#000000;fill-opacity:1;fill-rule:nonzero;stroke:none"
             d="M 0,0 -1.014,6.154 -4.11,0.736 Z m 2.455,-5.222 -1.659,0.297 -0.558,3.493 -5.061,0.908 -1.737,-3.081 -1.58,0.283 6.374,11.025 2.075,-0.371 z" /></g><g
           transform="translate(360.437,184.292)"
           id="g272"><path
             id="path274"
             style="fill:#000000;fill-opacity:1;fill-rule:nonzero;stroke:none"
             d="M 0,0 -1.925,0.345 -5.583,11.887 -7.474,1.34 -8.928,1.601 -6.814,13.391 -4.402,12.958 -1.066,2.423 0.66,12.05 2.114,11.79 Z" /></g><g
           transform="translate(367.5098,183.0234)"
           id="g276"><path
             id="path278"
             style="fill:#000000;fill-opacity:1;fill-rule:nonzero;stroke:none"
             d="m 0,0 -4.621,0.828 0.216,1.205 1.532,-0.275 1.683,9.382 -1.533,0.274 0.216,1.205 L 2.114,11.79 1.898,10.586 0.366,10.86 -1.316,1.479 0.216,1.204 Z" /></g><g
           transform="translate(378.7808,181.0029)"
           id="g280"><path
             id="path282"
             style="fill:#000000;fill-opacity:1;fill-rule:nonzero;stroke:none"
             d="m 0,0 -9.133,1.638 0.261,1.457 8.779,7.652 -6.908,1.238 0.249,1.395 L 1.94,11.821 1.687,10.404 -7.169,2.724 0.25,1.394 Z" /></g><g
           transform="translate(388.5757,184.0283)"
           id="g284"><path
             id="path286"
             style="fill:#000000;fill-opacity:1;fill-rule:nonzero;stroke:none"
             d="M 0,0 -1.014,6.155 -4.111,0.737 Z m 2.455,-5.222 -1.659,0.297 -0.558,3.493 -5.061,0.908 -1.737,-3.081 -1.58,0.283 6.374,11.026 2.075,-0.372 z" /></g><g
           transform="translate(343.3496,192.3906)"
           id="g288"><path
             id="path290"
             style="fill:#000000;fill-opacity:1;fill-rule:nonzero;stroke:none"
             d="M 0,0 3.413,-0.611 2.571,4.499 Z M 4.021,-1.229 -0.786,-0.367 2.836,5.97 Z M 4.732,-5.63 5.866,-5.833 3.81,6.197 2.08,6.506 -4.028,-4.059 l 1.055,-0.189 1.736,3.081 5.411,-0.97 z m 1.747,-0.82 -2.184,0.39 -0.558,3.494 -4.713,0.844 -1.736,-3.081 -2.105,0.377 6.64,11.487 2.42,-0.434 z" /></g><g
           transform="translate(358.7046,184.8564)"
           id="g292"><path
             id="path294"
             style="fill:#000000;fill-opacity:1;fill-rule:nonzero;stroke:none"
             d="M 0,0 1.53,-0.274 3.556,11.023 2.594,11.195 0.913,1.814 0.428,1.783 -2.862,12.174 -4.88,12.536 -6.906,1.238 l 0.962,-0.173 1.847,10.301 0.485,0.031 z m 1.935,-0.854 -2.321,0.415 -3.397,10.721 -1.757,-9.797 -1.946,0.349 2.202,12.282 2.807,-0.503 3.076,-9.714 1.591,8.876 1.946,-0.347 z" /></g><g
           transform="translate(363.1787,184.0537)"
           id="g296"><path
             id="path298"
             style="fill:#000000;fill-opacity:1;fill-rule:nonzero;stroke:none"
             d="M 0,0 4.129,-0.74 4.257,-0.028 2.725,0.246 4.495,10.12 6.027,9.846 6.155,10.558 2.026,11.299 1.898,10.586 3.431,10.312 1.66,0.438 0.128,0.713 Z M 4.533,-1.32 -0.58,-0.404 -0.276,1.293 1.256,1.018 2.851,9.907 1.318,10.182 1.622,11.879 6.735,10.962 6.431,9.266 4.899,9.54 3.305,0.65 4.837,0.376 Z" /></g><g
           transform="translate(369.938,182.8428)"
           id="g300"><path
             id="path302"
             style="fill:#000000;fill-opacity:1;fill-rule:nonzero;stroke:none"
             d="M 0,0 8.641,-1.55 8.802,-0.648 1.114,0.73 10.299,8.695 10.493,9.779 2.293,11.25 2.131,10.348 9.307,9.062 0.202,1.124 Z m 9.045,-2.13 -9.625,1.726 0.321,1.79 8.451,7.367 -6.641,1.19 0.338,1.887 9.184,-1.646 L 10.76,8.434 10.693,8.376 2.232,1.037 9.382,-0.244 Z" /></g><g
           transform="translate(384.8579,184.9492)"
           id="g304"><path
             id="path306"
             style="fill:#000000;fill-opacity:1;fill-rule:nonzero;stroke:none"
             d="M 0,0 3.414,-0.612 2.572,4.499 Z M 4.022,-1.229 -0.786,-0.367 2.836,5.97 Z M 4.733,-5.631 5.866,-5.834 3.81,6.196 2.08,6.506 -4.027,-4.06 l 1.054,-0.189 1.737,3.081 5.41,-0.97 z m 1.746,-0.82 -2.184,0.39 -0.558,3.494 -4.712,0.844 -1.737,-3.081 -2.104,0.377 6.639,11.488 2.42,-0.435 z" /></g><g
           transform="translate(415.0996,186.4619)"
           id="g308"><path
             id="path310"
             style="fill:#000000;fill-opacity:1;fill-rule:nonzero;stroke:none"
             d="M 0,0 C -0.274,1.53 -0.826,2.651 -1.656,3.36 -2.486,4.07 -3.49,4.319 -4.669,4.107 -5.858,3.895 -6.718,3.313 -7.248,2.359 -7.778,1.407 -7.906,0.164 -7.632,-1.366 c 0.277,-1.547 0.835,-2.669 1.674,-3.365 0.838,-0.699 1.839,-0.943 3.002,-0.734 1.164,0.208 2.016,0.783 2.559,1.729 C 0.145,-2.793 0.277,-1.547 0,0 M -0.672,4.57 C -0.101,4.127 0.381,3.546 0.772,2.826 1.163,2.106 1.445,1.261 1.619,0.29 1.793,-0.682 1.819,-1.575 1.697,-2.39 1.575,-3.204 1.327,-3.91 0.952,-4.505 0.565,-5.124 0.067,-5.627 -0.542,-6.014 -1.151,-6.401 -1.878,-6.669 -2.721,-6.82 c -0.823,-0.148 -1.596,-0.145 -2.318,0.009 -0.723,0.153 -1.366,0.45 -1.932,0.888 -0.565,0.44 -1.042,1.016 -1.432,1.731 -0.39,0.713 -0.673,1.56 -0.848,2.537 -0.172,0.96 -0.201,1.844 -0.085,2.652 0.115,0.808 0.364,1.526 0.749,2.157 0.369,0.599 0.871,1.098 1.505,1.495 0.635,0.397 1.355,0.667 2.163,0.812 0.838,0.15 1.616,0.146 2.334,-0.012 0.717,-0.157 1.355,-0.45 1.913,-0.879" /></g><g
           transform="translate(425.8623,191.0518)"
           id="g312"><path
             id="path314"
             style="fill:#000000;fill-opacity:1;fill-rule:nonzero;stroke:none"
             d="M 0,0 C -0.061,0.337 -0.173,0.626 -0.338,0.867 -0.503,1.107 -0.737,1.292 -1.042,1.423 -1.295,1.536 -1.581,1.595 -1.901,1.6 -2.221,1.605 -2.591,1.571 -3.01,1.496 L -4.841,1.169 -4.044,-3.281 -2.473,-3 c 0.494,0.088 0.915,0.208 1.266,0.361 0.351,0.153 0.634,0.37 0.849,0.654 0.195,0.264 0.324,0.55 0.384,0.858 C 0.089,-0.819 0.079,-0.443 0,0 m 5.155,-7.821 -2.019,-0.362 -4.754,3.988 -2.193,-0.393 0.839,-4.687 -1.556,-0.28 -2.11,11.79 3.278,0.587 C -2.653,2.949 -2.056,3.009 -1.567,3 -1.079,2.993 -0.626,2.903 -0.206,2.733 0.267,2.54 0.659,2.261 0.971,1.895 1.282,1.527 1.495,1.03 1.606,0.401 1.759,-0.448 1.675,-1.197 1.353,-1.846 1.03,-2.495 0.523,-3.031 -0.169,-3.454 Z" /></g><g
           transform="translate(437.2363,201.0879)"
           id="g316"><path
             id="path318"
             style="fill:#000000;fill-opacity:1;fill-rule:nonzero;stroke:none"
             d="m 0,0 -1.616,-3.345 -1.171,-0.21 0.877,3.213 z m 3.492,-10.039 c -0.274,1.53 -0.826,2.651 -1.656,3.36 -0.83,0.71 -1.835,0.958 -3.014,0.747 -1.189,-0.213 -2.049,-0.795 -2.579,-1.748 -0.529,-0.953 -0.657,-2.195 -0.384,-3.725 0.278,-1.547 0.835,-2.669 1.674,-3.366 0.838,-0.698 1.84,-0.942 3.002,-0.734 1.164,0.209 2.017,0.784 2.559,1.73 0.542,0.943 0.675,2.189 0.398,3.736 m -0.673,4.57 c 0.572,-0.443 1.053,-1.024 1.445,-1.744 0.39,-0.721 0.674,-1.565 0.847,-2.536 0.174,-0.972 0.2,-1.865 0.078,-2.681 -0.123,-0.813 -0.371,-1.519 -0.746,-2.114 -0.386,-0.619 -0.884,-1.122 -1.494,-1.509 -0.609,-0.387 -1.336,-0.655 -2.179,-0.806 -0.823,-0.148 -1.595,-0.145 -2.318,0.009 -0.722,0.153 -1.366,0.45 -1.931,0.888 -0.565,0.44 -1.042,1.016 -1.433,1.73 -0.391,0.714 -0.672,1.561 -0.848,2.538 -0.172,0.96 -0.2,1.844 -0.085,2.652 0.116,0.808 0.365,1.526 0.749,2.156 0.369,0.6 0.871,1.099 1.506,1.496 0.634,0.396 1.356,0.667 2.162,0.812 0.838,0.15 1.616,0.146 2.334,-0.012 0.718,-0.158 1.356,-0.451 1.913,-0.879" /></g><g
           transform="translate(458.0742,200.2412)"
           id="g320"><path
             id="path322"
             style="fill:#000000;fill-opacity:1;fill-rule:nonzero;stroke:none"
             d="m 0,0 -0.932,-12.335 -1.753,-0.313 -4.211,9.345 -0.653,-10.217 -1.714,-0.306 -5.207,11.236 1.595,0.285 4.215,-9.362 0.666,10.235 1.58,0.284 4.217,-9.46 0.672,10.335 z" /></g><g
           transform="translate(411.2158,190.3926)"
           id="g324"><path
             id="path326"
             style="fill:#000000;fill-opacity:1;fill-rule:nonzero;stroke:none"
             d="m 0,0 c -0.237,0 -0.486,-0.023 -0.741,-0.069 -1.123,-0.202 -1.909,-0.733 -2.405,-1.623 -0.499,-0.897 -0.618,-2.095 -0.356,-3.561 0.265,-1.48 0.799,-2.562 1.587,-3.217 0.596,-0.496 1.29,-0.748 2.064,-0.748 0.235,0 0.482,0.024 0.734,0.069 1.098,0.196 1.879,0.721 2.387,1.606 0.509,0.887 0.633,2.087 0.368,3.568 C 3.375,-2.509 2.846,-1.428 2.065,-0.761 1.467,-0.249 0.792,0 0,0 m 0.149,-9.718 v 0 c -0.894,0 -1.696,0.291 -2.384,0.864 -0.881,0.731 -1.473,1.914 -1.759,3.513 -0.283,1.582 -0.145,2.892 0.411,3.891 0.565,1.016 1.492,1.647 2.753,1.873 C 0.421,0.645 1.506,0.376 2.391,-0.38 3.261,-1.125 3.847,-2.305 4.13,-3.887 4.416,-5.486 4.272,-6.8 3.703,-7.792 3.125,-8.799 2.206,-9.421 0.972,-9.642 0.69,-9.692 0.414,-9.718 0.149,-9.718 M 0.147,1.391 C -0.216,1.391 -0.599,1.354 -0.992,1.284 -1.763,1.146 -2.461,0.885 -3.066,0.507 -3.664,0.132 -4.143,-0.344 -4.49,-0.907 c -0.364,-0.598 -0.605,-1.292 -0.715,-2.062 -0.111,-0.776 -0.083,-1.642 0.084,-2.573 0.169,-0.946 0.446,-1.774 0.821,-2.461 0.371,-0.681 0.831,-1.236 1.366,-1.653 0.535,-0.414 1.15,-0.698 1.83,-0.841 0.688,-0.146 1.434,-0.149 2.223,-0.008 0.81,0.146 1.512,0.405 2.089,0.772 0.575,0.365 1.051,0.845 1.416,1.43 0.355,0.563 0.593,1.241 0.71,2.02 C 5.451,-5.5 5.425,-4.626 5.257,-3.685 5.088,-2.744 4.812,-1.916 4.436,-1.224 4.064,-0.539 3.601,0.021 3.059,0.442 2.533,0.846 1.923,1.126 1.245,1.274 0.896,1.352 0.527,1.391 0.147,1.391 m -0.157,-12.5 c -0.411,0 -0.814,0.042 -1.198,0.124 -0.753,0.158 -1.438,0.472 -2.032,0.934 -0.591,0.459 -1.095,1.068 -1.499,1.808 -0.401,0.734 -0.696,1.613 -0.874,2.613 -0.177,0.984 -0.205,1.902 -0.087,2.732 0.119,0.837 0.383,1.595 0.783,2.252 0.389,0.63 0.922,1.161 1.586,1.577 0.659,0.412 1.416,0.696 2.251,0.845 C -0.212,1.931 0.606,1.929 1.352,1.763 2.102,1.599 2.779,1.287 3.364,0.838 3.962,0.374 4.47,-0.239 4.875,-0.985 5.277,-1.725 5.571,-2.604 5.749,-3.597 5.927,-4.592 5.954,-5.521 5.828,-6.357 5.701,-7.204 5.438,-7.948 5.047,-8.569 4.643,-9.216 4.114,-9.75 3.476,-10.155 2.845,-10.557 2.082,-10.84 1.207,-10.997 0.791,-11.071 0.381,-11.109 -0.01,-11.109" /></g><g
           transform="translate(421.3115,192.0186)"
           id="g328"><path
             id="path330"
             style="fill:#000000;fill-opacity:1;fill-rule:nonzero;stroke:none"
             d="m 0,0 0.708,-3.958 1.326,0.237 c 0.473,0.084 0.88,0.2 1.209,0.345 0.311,0.135 0.563,0.328 0.75,0.575 0.171,0.232 0.286,0.488 0.339,0.755 0.056,0.275 0.046,0.622 -0.027,1.035 C 4.251,-0.71 4.15,-0.451 4.007,-0.241 3.868,-0.039 3.673,0.113 3.41,0.227 3.187,0.326 2.931,0.379 2.646,0.383 L 2.578,0.384 C 2.29,0.384 1.956,0.35 1.585,0.283 Z M 0.304,-4.538 -0.58,0.404 1.497,0.775 C 1.896,0.847 2.261,0.884 2.578,0.884 L 2.654,0.883 C 3.007,0.877 3.329,0.811 3.611,0.685 3.955,0.536 4.228,0.32 4.419,0.042 4.604,-0.228 4.73,-0.552 4.797,-0.923 4.883,-1.404 4.892,-1.804 4.822,-2.144 4.755,-2.483 4.611,-2.806 4.394,-3.101 4.151,-3.42 3.833,-3.666 3.443,-3.835 3.078,-3.994 2.634,-4.122 2.122,-4.213 Z m -2.101,5.604 2.022,-11.297 1.064,0.191 -0.839,4.687 2.554,0.457 4.754,-3.987 1.37,0.245 -5.177,4.247 0.301,0.183 c 0.647,0.396 1.128,0.903 1.428,1.507 0.296,0.596 0.374,1.299 0.231,2.092 C 5.809,-0.029 5.613,0.434 5.331,0.766 5.048,1.099 4.684,1.357 4.25,1.535 3.859,1.693 3.432,1.777 2.979,1.783 L 2.888,1.784 C 2.437,1.784 1.88,1.726 1.234,1.609 Z M -0.18,-10.812 -2.377,1.471 1.146,2.102 c 0.674,0.121 1.26,0.182 1.742,0.182 l 0.1,-10e-4 C 3.501,2.276 3.989,2.18 4.438,1.998 4.948,1.79 5.376,1.484 5.712,1.09 6.053,0.688 6.285,0.146 6.403,-0.521 6.564,-1.422 6.472,-2.23 6.127,-2.924 5.832,-3.519 5.388,-4.028 4.803,-4.443 L 10.284,-8.938 7.615,-9.416 2.861,-5.429 1.03,-5.757 1.869,-10.444 Z" /></g><g
           transform="translate(435.5254,200.5273)"
           id="g332"><path
             id="path334"
             style="fill:#000000;fill-opacity:1;fill-rule:nonzero;stroke:none"
             d="m 0,0 -0.73,-2.678 0.655,0.117 1.347,2.79 z m -1.422,-3.311 1.024,3.748 2.547,0.456 -1.884,-3.901 z m 2.739,-2.238 c -0.236,0 -0.485,-0.022 -0.74,-0.068 -1.122,-0.201 -1.908,-0.732 -2.404,-1.623 -0.498,-0.898 -0.618,-2.096 -0.357,-3.561 0.266,-1.48 0.8,-2.562 1.588,-3.218 0.777,-0.646 1.713,-0.874 2.798,-0.679 1.098,0.197 1.879,0.722 2.386,1.607 0.51,0.888 0.634,2.088 0.369,3.569 -0.263,1.465 -0.792,2.547 -1.572,3.213 -0.598,0.512 -1.275,0.76 -2.068,0.76 m 0.153,-9.717 c -0.895,0 -1.698,0.29 -2.386,0.863 -0.881,0.732 -1.473,1.915 -1.76,3.514 -0.282,1.581 -0.144,2.891 0.411,3.891 0.567,1.018 1.493,1.647 2.754,1.873 1.252,0.225 2.337,-0.049 3.22,-0.803 0.871,-0.744 1.456,-1.924 1.74,-3.507 0.286,-1.599 0.142,-2.913 -0.428,-3.905 -0.577,-1.006 -1.496,-1.629 -2.731,-1.85 -0.28,-0.05 -0.557,-0.076 -0.82,-0.076 M 1.466,-4.157 c -0.363,0 -0.746,-0.036 -1.139,-0.107 -0.77,-0.137 -1.468,-0.399 -2.073,-0.777 -0.599,-0.375 -1.078,-0.851 -1.426,-1.415 -0.364,-0.596 -0.604,-1.289 -0.715,-2.061 -0.11,-0.778 -0.082,-1.643 0.084,-2.573 0.171,-0.949 0.448,-1.778 0.822,-2.462 0.372,-0.68 0.832,-1.236 1.367,-1.652 0.533,-0.414 1.148,-0.696 1.829,-0.841 0.687,-0.145 1.432,-0.148 2.222,-0.008 0.81,0.146 1.513,0.406 2.089,0.772 0.575,0.365 1.051,0.845 1.416,1.43 0.355,0.562 0.593,1.241 0.711,2.019 0.117,0.786 0.091,1.661 -0.077,2.6 -0.168,0.936 -0.444,1.764 -0.821,2.461 -0.373,0.684 -0.836,1.245 -1.378,1.666 -0.524,0.402 -1.135,0.682 -1.814,0.832 -0.348,0.077 -0.717,0.116 -1.097,0.116 m -0.157,-12.5 c -0.411,0 -0.814,0.042 -1.198,0.124 -0.755,0.159 -1.438,0.473 -2.032,0.934 -0.59,0.458 -1.095,1.067 -1.5,1.807 -0.399,0.731 -0.693,1.611 -0.874,2.614 -0.176,0.982 -0.205,1.902 -0.086,2.732 0.119,0.839 0.383,1.596 0.783,2.251 0.388,0.632 0.922,1.162 1.586,1.578 0.66,0.412 1.417,0.696 2.251,0.846 0.866,0.155 1.685,0.151 2.432,-0.014 0.751,-0.165 1.428,-0.477 2.012,-0.925 0.597,-0.464 1.105,-1.076 1.511,-1.823 0.403,-0.743 0.698,-1.621 0.874,-2.612 0.178,-0.992 0.204,-1.92 0.079,-2.761 -0.127,-0.848 -0.39,-1.591 -0.781,-2.211 -0.404,-0.647 -0.933,-1.181 -1.572,-1.586 -0.631,-0.401 -1.395,-0.685 -2.27,-0.842 -0.415,-0.074 -0.824,-0.112 -1.215,-0.112" /></g><g
           transform="translate(443.9678,197.4619)"
           id="g336"><path
             id="path338"
             style="fill:#000000;fill-opacity:1;fill-rule:nonzero;stroke:none"
             d="m 0,0 4.989,-10.767 1.331,0.239 0.641,10.02 0.477,0.087 4.131,-9.168 1.371,0.245 L 13.833,2.477 12.817,2.294 12.158,-7.846 11.681,-7.931 7.544,1.351 6.349,1.136 5.695,-8.904 5.219,-8.99 1.084,0.194 Z m 4.698,-11.327 -5.425,11.706 2.106,0.376 3.883,-8.624 0.614,9.429 1.965,0.351 3.885,-8.714 0.619,9.521 2.035,0.364 -0.971,-12.85 -2.135,-0.381 -3.878,8.606 -0.601,-9.409 z" /></g><g
           transform="translate(462.748,213.4092)"
           id="g340"><path
             id="path342"
             style="fill:#000000;fill-opacity:1;fill-rule:nonzero;stroke:none"
             d="m 0,0 -1.435,-3.998 9.943,-3.567 -0.534,-1.489 -9.943,3.568 -1.434,-3.998 -1.331,0.477 3.403,9.485 z" /></g><g
           transform="translate(471.9971,222.1553)"
           id="g344"><path
             id="path346"
             style="fill:#000000;fill-opacity:1;fill-rule:nonzero;stroke:none"
             d="M 0,0 C 0.818,-0.293 1.499,-0.639 2.044,-1.034 2.588,-1.431 2.989,-1.903 3.248,-2.455 3.492,-2.979 3.61,-3.529 3.603,-4.109 3.594,-4.688 3.466,-5.321 3.22,-6.008 2.968,-6.709 2.656,-7.287 2.282,-7.741 1.908,-8.195 1.476,-8.535 0.985,-8.76 c -0.56,-0.258 -1.164,-0.371 -1.813,-0.338 -0.65,0.032 -1.401,0.202 -2.255,0.508 l -6.744,2.42 0.533,1.488 6.821,-2.448 c 0.612,-0.219 1.108,-0.35 1.492,-0.394 0.382,-0.044 0.752,-0.021 1.111,0.072 0.407,0.102 0.762,0.313 1.063,0.632 0.303,0.318 0.549,0.743 0.74,1.274 0.192,0.536 0.275,1.022 0.245,1.456 -0.03,0.435 -0.171,0.824 -0.422,1.169 -0.218,0.299 -0.497,0.557 -0.839,0.773 -0.341,0.215 -0.787,0.421 -1.337,0.619 l -6.859,2.461 0.534,1.488 z" /></g><g
           transform="translate(471.6816,232.5186)"
           id="g348"><path
             id="path350"
             style="fill:#000000;fill-opacity:1;fill-rule:nonzero;stroke:none"
             d="M 0,0 C -0.323,0.115 -0.63,0.162 -0.92,0.139 -1.211,0.115 -1.488,0.005 -1.754,-0.194 -1.977,-0.357 -2.171,-0.576 -2.335,-0.852 -2.499,-1.126 -2.653,-1.464 -2.797,-1.864 l -0.629,-1.751 4.255,-1.528 0.539,1.504 c 0.169,0.471 0.276,0.897 0.318,1.278 0.043,0.38 -0.004,0.734 -0.144,1.06 C 1.411,-0.998 1.227,-0.745 0.99,-0.539 0.754,-0.332 0.424,-0.152 0,0 M 9.35,0.572 8.657,-1.359 2.832,-3.493 2.079,-5.59 6.562,-7.199 6.027,-8.687 l -11.273,4.045 1.125,3.134 c 0.242,0.677 0.488,1.225 0.738,1.644 0.25,0.419 0.553,0.768 0.91,1.048 0.403,0.313 0.841,0.513 1.315,0.601 0.472,0.088 1.009,0.024 1.61,-0.191 C 1.265,1.302 1.872,0.854 2.274,0.252 2.676,-0.35 2.889,-1.057 2.91,-1.867 Z" /></g><g
           transform="translate(473.085,246.4082)"
           id="g352"><path
             id="path354"
             style="fill:#000000;fill-opacity:1;fill-rule:nonzero;stroke:none"
             d="M 0,0 4.916,-6.209 9.86,-7.983 9.326,-9.472 4.541,-7.755 -3.365,-9.38 l 0.591,1.647 6.138,1.249 -3.933,4.898 z" /></g><g
           transform="translate(484.7139,253.4775)"
           id="g356"><path
             id="path358"
             style="fill:#000000;fill-opacity:1;fill-rule:nonzero;stroke:none"
             d="M 0,0 C 0.439,-0.157 0.837,-0.414 1.192,-0.771 1.55,-1.128 1.811,-1.543 1.978,-2.016 2.157,-2.532 2.241,-3.09 2.231,-3.688 2.223,-4.287 2.082,-4.963 1.813,-5.714 1.522,-6.521 1.188,-7.219 0.804,-7.809 0.423,-8.398 -0.037,-8.973 -0.574,-9.531 l -1.878,0.674 0.038,0.104 c 0.678,0.396 1.278,0.918 1.802,1.567 0.523,0.65 0.902,1.3 1.135,1.952 0.331,0.921 0.415,1.702 0.249,2.34 -0.163,0.638 -0.536,1.062 -1.116,1.27 -0.5,0.18 -0.911,0.19 -1.235,0.032 -0.325,-0.158 -0.642,-0.461 -0.951,-0.91 -0.236,-0.34 -0.465,-0.717 -0.688,-1.132 -0.223,-0.415 -0.472,-0.849 -0.751,-1.304 -0.567,-0.916 -1.193,-1.521 -1.878,-1.816 -0.683,-0.295 -1.437,-0.295 -2.259,10e-4 -0.945,0.339 -1.577,1.012 -1.896,2.021 -0.319,1.007 -0.26,2.12 0.178,3.337 0.282,0.787 0.616,1.481 1.003,2.083 0.386,0.602 0.783,1.117 1.185,1.542 L -5.864,1.596 -5.901,1.49 C -6.418,1.194 -6.919,0.742 -7.408,0.135 c -0.489,-0.608 -0.863,-1.276 -1.124,-2.002 -0.286,-0.796 -0.35,-1.496 -0.191,-2.1 0.161,-0.602 0.503,-0.998 1.029,-1.186 0.468,-0.169 0.88,-0.181 1.234,-0.036 0.355,0.144 0.71,0.495 1.069,1.05 0.186,0.295 0.435,0.72 0.748,1.276 0.314,0.554 0.596,1.018 0.85,1.391 0.521,0.752 1.081,1.258 1.681,1.518 C -1.512,0.306 -0.808,0.29 0,0" /></g><g
           transform="translate(481.9795,267.0117)"
           id="g360"><path
             id="path362"
             style="fill:#000000;fill-opacity:1;fill-rule:nonzero;stroke:none"
             d="m 0,0 -1.435,-3.998 9.943,-3.567 -0.534,-1.489 -9.943,3.568 -1.434,-3.998 -1.331,0.477 3.403,9.485 z" /></g><g
           transform="translate(484.5361,278.3262)"
           id="g364"><path
             id="path366"
             style="fill:#000000;fill-opacity:1;fill-rule:nonzero;stroke:none"
             d="M 0,0 4.916,-6.21 9.86,-7.983 9.327,-9.472 4.542,-7.755 -3.365,-9.38 l 0.591,1.647 6.139,1.249 -3.933,4.898 z" /></g><g
           transform="translate(499.8184,285.4531)"
           id="g368"><path
             id="path370"
             style="fill:#000000;fill-opacity:1;fill-rule:nonzero;stroke:none"
             d="m 0,0 -0.693,-1.932 -6.608,-2.626 0.796,-1.541 3.824,-1.372 -0.534,-1.487 -11.273,4.045 0.534,1.487 5.883,-2.11 -3.933,7.544 0.647,1.804 3.506,-6.899 z" /></g><g
           transform="translate(502.1309,291.8994)"
           id="g372"><path
             id="path374"
             style="fill:#000000;fill-opacity:1;fill-rule:nonzero;stroke:none"
             d="m 0,0 -1.585,-4.418 -1.15,0.412 0.525,1.466 -8.973,3.219 -0.525,-1.465 -1.15,0.413 1.585,4.418 1.15,-0.412 -0.525,-1.466 8.972,-3.219 0.526,1.465 z" /></g><g
           transform="translate(458.333,204.5537)"
           id="g376"><path
             id="path378"
             style="fill:#000000;fill-opacity:1;fill-rule:nonzero;stroke:none"
             d="M 0,0 0.86,-0.31 2.295,3.688 12.238,0.121 12.604,1.14 2.661,4.706 4.096,8.704 3.235,9.014 Z M 1.163,-0.948 -0.639,-0.303 2.934,9.652 4.734,9.007 3.3,5.009 13.242,1.44 12.539,-0.518 2.597,3.05 Z" /></g><g
           transform="translate(462.4893,216.1367)"
           id="g380"><path
             id="path382"
             style="fill:#000000;fill-opacity:1;fill-rule:nonzero;stroke:none"
             d="m 0,0 6.509,-2.336 c 0.829,-0.298 1.563,-0.464 2.182,-0.493 0.621,-0.035 1.175,0.075 1.698,0.315 0.454,0.207 0.86,0.528 1.208,0.951 0.352,0.426 0.653,0.985 0.895,1.659 0.237,0.658 0.361,1.269 0.368,1.817 0.007,0.538 -0.104,1.059 -0.331,1.545 -0.238,0.509 -0.617,0.954 -1.125,1.324 -0.525,0.382 -1.192,0.719 -1.98,1.001 L 2.913,8.119 2.548,7.101 9.172,4.725 c 0.567,-0.204 1.034,-0.42 1.387,-0.644 0.365,-0.23 0.67,-0.512 0.907,-0.836 0.279,-0.384 0.436,-0.82 0.469,-1.3 C 11.967,1.481 11.88,0.958 11.676,0.389 11.475,-0.174 11.207,-0.632 10.883,-0.974 10.549,-1.326 10.15,-1.563 9.699,-1.676 9.314,-1.776 8.91,-1.802 8.498,-1.754 8.094,-1.708 7.588,-1.574 6.951,-1.347 L 0.365,1.018 Z m 8.898,-3.335 c -0.076,0 -0.153,0.002 -0.231,0.006 -0.669,0.032 -1.452,0.208 -2.327,0.522 l -6.979,2.504 0.702,1.959 7.056,-2.532 c 0.593,-0.212 1.075,-0.34 1.436,-0.382 0.353,-0.04 0.694,-0.018 1.02,0.067 0.36,0.09 0.677,0.279 0.945,0.561 0.277,0.291 0.507,0.691 0.685,1.187 0.181,0.504 0.259,0.96 0.232,1.354 C 11.41,2.295 11.284,2.645 11.062,2.95 10.863,3.224 10.604,3.462 10.291,3.659 9.97,3.862 9.536,4.063 9.004,4.254 L 1.909,6.799 2.612,8.758 9.592,6.254 C 10.425,5.956 11.134,5.597 11.698,5.187 12.275,4.767 12.707,4.256 12.982,3.67 13.241,3.114 13.368,2.521 13.36,1.906 13.352,1.303 13.218,0.637 12.963,-0.073 12.701,-0.802 12.372,-1.41 11.983,-1.882 11.586,-2.363 11.12,-2.729 10.598,-2.969 10.069,-3.212 9.497,-3.335 8.898,-3.335" /></g><g
           transform="translate(468.5752,229.0537)"
           id="g384"><path
             id="path386"
             style="fill:#000000;fill-opacity:1;fill-rule:nonzero;stroke:none"
             d="M 0,0 3.784,-1.358 4.239,-0.09 C 4.401,0.363 4.504,0.773 4.544,1.131 4.582,1.468 4.54,1.781 4.419,2.065 4.305,2.329 4.141,2.556 3.933,2.737 3.721,2.923 3.414,3.089 3.021,3.229 2.733,3.332 2.462,3.371 2.207,3.354 1.961,3.335 1.73,3.242 1.503,3.07 1.305,2.926 1.132,2.729 0.986,2.485 0.83,2.225 0.682,1.898 0.545,1.517 Z m 4.087,-1.997 -4.726,1.696 0.713,1.987 c 0.149,0.412 0.311,0.768 0.483,1.055 0.179,0.302 0.397,0.548 0.648,0.732 0.3,0.224 0.624,0.352 0.961,0.38 C 2.494,3.881 2.834,3.827 3.19,3.7 3.643,3.538 4.003,3.341 4.262,3.114 4.526,2.883 4.733,2.597 4.878,2.264 5.035,1.897 5.089,1.497 5.04,1.075 4.997,0.681 4.886,0.231 4.71,-0.258 Z M -1.82,-1.026 8.983,-4.902 9.349,-3.885 4.866,-2.275 5.743,0.166 11.567,2.3 12.038,3.611 5.776,1.239 5.767,1.591 C 5.747,2.349 5.547,3.018 5.173,3.578 4.803,4.132 4.231,4.551 3.474,4.823 2.917,5.022 2.423,5.086 1.994,5.004 1.562,4.924 1.155,4.738 0.787,4.451 0.458,4.193 0.172,3.864 -0.062,3.473 -0.302,3.069 -0.544,2.531 -0.779,1.873 Z M 9.284,-5.541 -2.459,-1.327 -1.25,2.041 c 0.246,0.689 0.502,1.257 0.759,1.688 0.265,0.445 0.593,0.821 0.97,1.117 C 0.912,5.182 1.391,5.4 1.902,5.496 2.416,5.589 3,5.523 3.643,5.294 4.503,4.984 5.158,4.501 5.589,3.855 5.957,3.304 6.178,2.665 6.245,1.952 L 12.874,4.463 11.96,1.911 6.134,-0.223 5.505,-1.975 9.987,-3.584 Z" /></g><g
           transform="translate(477.6445,238.9121)"
           id="g388"><path
             id="path390"
             style="fill:#000000;fill-opacity:1;fill-rule:nonzero;stroke:none"
             d="M 0,0 4.616,-1.656 4.981,-0.638 0.205,1.076 0.16,1.132 -4.477,6.988 -4.847,5.957 -0.743,0.849 -7.146,-0.454 -7.539,-1.549 Z m 4.917,-2.295 -4.954,1.777 -8.274,-1.701 0.79,2.198 5.874,1.196 -3.764,4.688 0.768,2.141 5.151,-6.506 5.112,-1.835 z" /></g><g
           transform="translate(482.749,244.7109)"
           id="g392"><path
             id="path394"
             style="fill:#000000;fill-opacity:1;fill-rule:nonzero;stroke:none"
             d="M 0,0 1.321,-0.475 C 1.8,0.036 2.216,0.563 2.559,1.094 2.928,1.661 3.259,2.349 3.542,3.138 3.802,3.861 3.938,4.516 3.946,5.082 3.956,5.65 3.875,6.185 3.706,6.669 3.553,7.104 3.308,7.491 2.98,7.818 2.653,8.147 2.283,8.387 1.881,8.531 1.137,8.799 0.489,8.817 -0.048,8.583 -0.602,8.343 -1.132,7.862 -1.623,7.152 -1.868,6.792 -2.143,6.343 -2.46,5.78 -2.776,5.221 -3.027,4.792 -3.214,4.495 -3.608,3.886 -3.995,3.511 -4.4,3.346 -4.594,3.267 -4.803,3.227 -5.022,3.227 c -0.248,0 -0.514,0.05 -0.792,0.151 -0.604,0.217 -1.002,0.673 -1.185,1.357 -0.172,0.652 -0.105,1.409 0.196,2.249 0.27,0.752 0.662,1.45 1.165,2.075 0.407,0.504 0.828,0.911 1.256,1.211 L -5.6,10.706 C -5.955,10.314 -6.307,9.849 -6.646,9.32 -7.021,8.737 -7.349,8.054 -7.624,7.288 -8.041,6.128 -8.1,5.059 -7.799,4.109 c 0.297,-0.937 0.866,-1.546 1.741,-1.86 0.76,-0.272 1.455,-0.275 2.078,-0.007 0.632,0.274 1.226,0.852 1.763,1.719 0.264,0.43 0.514,0.864 0.744,1.29 0.224,0.418 0.46,0.807 0.702,1.156 0.337,0.489 0.679,0.814 1.047,0.992 0.385,0.189 0.866,0.18 1.43,-0.021 C 2.366,7.141 2.795,6.655 2.979,5.935 3.156,5.25 3.07,4.413 2.724,3.447 2.482,2.774 2.086,2.093 1.547,1.424 1.092,0.858 0.572,0.381 0,0 m 1.459,-1.055 -2.268,0.814 0.156,0.426 0.078,0.044 C 0.073,0.607 0.656,1.115 1.158,1.738 1.662,2.363 2.03,2.995 2.253,3.616 2.565,4.486 2.646,5.225 2.495,5.811 2.353,6.368 2.039,6.728 1.537,6.907 1.102,7.062 0.757,7.077 0.495,6.95 0.211,6.812 -0.076,6.533 -0.359,6.123 -0.591,5.789 -0.817,5.416 -1.032,5.015 -1.267,4.579 -1.522,4.137 -1.791,3.698 -2.384,2.741 -3.054,2.098 -3.783,1.783 -4.521,1.465 -5.348,1.462 -6.227,1.778 c -1.016,0.366 -1.706,1.099 -2.048,2.181 -0.335,1.056 -0.274,2.232 0.18,3.498 0.288,0.801 0.634,1.519 1.029,2.133 0.391,0.61 0.799,1.14 1.213,1.579 l 0.113,0.118 2.159,-0.773 -0.15,-0.428 -0.082,-0.046 C -4.297,9.763 -4.779,9.327 -5.249,8.744 -5.717,8.164 -6.081,7.515 -6.332,6.815 -6.6,6.071 -6.661,5.415 -6.516,4.863 c 0.14,-0.522 0.424,-0.854 0.87,-1.014 0.225,-0.081 0.434,-0.122 0.624,-0.122 0.154,0 0.299,0.028 0.432,0.082 0.304,0.124 0.624,0.445 0.954,0.955 0.183,0.29 0.43,0.711 0.74,1.262 0.326,0.575 0.607,1.036 0.861,1.41 0.546,0.789 1.147,1.329 1.788,1.606 C 0.411,9.326 1.184,9.313 2.05,9.002 2.522,8.833 2.955,8.554 3.335,8.172 3.715,7.792 3.999,7.342 4.178,6.834 4.366,6.293 4.456,5.701 4.446,5.074 4.438,4.453 4.291,3.744 4.013,2.969 3.716,2.143 3.368,1.421 2.979,0.821 2.592,0.224 2.118,-0.368 1.571,-0.938 Z" /></g><g
           transform="translate(477.5645,258.1553)"
           id="g396"><path
             id="path398"
             style="fill:#000000;fill-opacity:1;fill-rule:nonzero;stroke:none"
             d="M 0,0 0.86,-0.309 2.295,3.689 12.238,0.122 12.604,1.141 2.661,4.707 4.096,8.705 3.235,9.015 Z M 1.163,-0.947 -0.639,-0.302 2.934,9.653 4.734,9.008 3.3,5.009 13.242,1.441 12.539,-0.517 2.597,3.051 Z" /></g><g
           transform="translate(489.0967,270.8301)"
           id="g400"><path
             id="path402"
             style="fill:#000000;fill-opacity:1;fill-rule:nonzero;stroke:none"
             d="M 0,0 4.615,-1.656 4.98,-0.639 0.204,1.075 0.159,1.131 -4.478,6.988 -4.847,5.958 -0.743,0.849 -7.147,-0.454 -7.54,-1.549 Z m 4.918,-2.295 -4.955,1.777 -8.275,-1.7 0.79,2.197 5.875,1.196 -3.764,4.687 0.767,2.142 5.151,-6.507 5.112,-1.833 z" /></g><g
           transform="translate(485.6494,280.6904)"
           id="g404"><path
             id="path406"
             style="fill:#000000;fill-opacity:1;fill-rule:nonzero;stroke:none"
             d="m 0,0 10.804,-3.876 0.365,1.018 -3.682,1.32 L 6.52,0.336 13.278,3.021 13.747,4.328 6.198,1.36 2.852,7.944 2.438,6.789 6.614,-1.225 0.365,1.018 Z M 11.104,-4.515 -0.639,-0.301 0.064,1.656 5.581,-0.322 1.893,6.752 2.771,9.204 6.438,1.991 14.591,5.197 13.673,2.641 7.217,0.074 7.841,-1.134 11.808,-2.558 Z" /></g><g
           transform="translate(499.7148,288.0449)"
           id="g408"><path
             id="path410"
             style="fill:#000000;fill-opacity:1;fill-rule:nonzero;stroke:none"
             d="M 0,0 0.68,-0.244 2.097,3.704 1.417,3.948 0.892,2.483 -8.552,5.87 l 0.526,1.466 -0.68,0.244 -1.417,-3.948 0.68,-0.244 0.525,1.465 9.443,-3.387 z m 0.982,-0.883 -1.621,0.58 0.526,1.466 -8.502,3.051 -0.526,-1.465 -1.621,0.582 1.753,4.888 1.621,-0.58 L -7.913,6.173 0.589,3.122 1.114,4.587 2.735,4.005 Z" /></g><g
           transform="translate(403.0063,189.1523)"
           id="g412"><path
             id="path414"
             style="fill:#000000;fill-opacity:1;fill-rule:nonzero;stroke:none"
             d="m 0,0 -4.244,-0.194 0.485,-10.552 -1.579,-0.073 -0.485,10.551 -4.243,-0.194 -0.065,1.413 10.066,0.462 z" /></g><g
           transform="translate(397.4219,189.1455)"
           id="g416"><path
             id="path418"
             style="fill:#000000;fill-opacity:1;fill-rule:nonzero;stroke:none"
             d="m 0,0 0.484,-10.551 1.08,0.05 L 1.08,0.051 5.323,0.245 5.281,1.159 -4.286,0.72 -4.244,-0.194 Z M 0.008,-11.074 -0.477,-0.521 -4.72,-0.716 -4.808,1.196 5.758,1.681 5.846,-0.231 1.602,-0.426 2.086,-10.978 Z" /></g><g
           transform="translate(433.5537,327.7461)"
           id="g420"><path
             id="path422"
             style="fill:#000000;fill-opacity:1;fill-rule:nonzero;stroke:none"
             d="M 0,0 0.553,6.215 -3.798,1.738 Z m 1.075,-5.667 -1.531,0.701 0.33,3.521 -4.676,2.139 -2.45,-2.549 -1.459,0.667 8.921,9.09 1.916,-0.878 z" /></g><g
           transform="translate(449.7295,316.1387)"
           id="g424"><path
             id="path426"
             style="fill:#000000;fill-opacity:1;fill-rule:nonzero;stroke:none"
             d="m 0,0 c -0.716,-0.004 -1.469,0.056 -2.261,0.173 -0.793,0.118 -1.515,0.325 -2.169,0.625 -0.841,0.386 -1.56,0.856 -2.155,1.411 -0.595,0.557 -1.031,1.182 -1.311,1.875 -0.282,0.7 -0.396,1.468 -0.342,2.302 0.053,0.833 0.299,1.725 0.733,2.677 0.798,1.741 1.932,2.883 3.401,3.428 1.47,0.545 3.086,0.414 4.848,-0.392 C 1.358,11.817 1.952,11.455 2.526,11.014 3.099,10.57 3.675,10.002 4.253,9.308 L 3.466,7.588 3.335,7.647 C 3.238,7.834 3.091,8.088 2.892,8.408 2.693,8.729 2.485,9.016 2.268,9.27 2.003,9.573 1.682,9.871 1.304,10.166 c -0.378,0.293 -0.835,0.564 -1.372,0.811 -1.21,0.553 -2.347,0.599 -3.41,0.14 C -4.54,10.656 -5.377,9.758 -5.988,8.422 -6.634,7.013 -6.769,5.748 -6.39,4.628 -6.013,3.51 -5.19,2.659 -3.922,2.078 -3.458,1.866 -2.973,1.7 -2.468,1.581 -1.964,1.462 -1.504,1.396 -1.088,1.384 l 1.223,2.67 -2.898,1.325 0.583,1.273 4.32,-1.977 z" /></g><g
           transform="translate(464.5781,308.3682)"
           id="g428"><path
             id="path430"
             style="fill:#000000;fill-opacity:1;fill-rule:nonzero;stroke:none"
             d="M 0,0 -1.438,0.658 1.004,5.99 -4.391,8.46 -6.832,3.128 -8.27,3.786 l 4.987,10.891 1.437,-0.658 -1.955,-4.272 5.394,-2.47 1.955,4.272 1.437,-0.658 z" /></g><g
           transform="translate(430.1816,329.5645)"
           id="g432"><path
             id="path434"
             style="fill:#000000;fill-opacity:1;fill-rule:nonzero;stroke:none"
             d="M 0,0 3.154,-1.444 3.613,3.717 Z M 3.59,-2.193 -0.852,-0.16 4.236,5.076 Z M 3.182,-6.631 4.228,-7.11 5.234,5.052 3.638,5.784 l -8.549,-8.711 0.973,-0.446 2.451,2.55 4.999,-2.287 z m 1.485,-1.23 -2.017,0.923 0.33,3.521 -4.352,1.992 -2.45,-2.55 -1.945,0.89 9.293,9.469 2.236,-1.024 z" /></g><g
           transform="translate(447.4746,328.7095)"
           id="g436"><path
             id="path438"
             style="fill:#000000;fill-opacity:1;fill-rule:nonzero;stroke:none"
             d="m 0,0 c -0.607,0 -1.2,-0.105 -1.762,-0.314 -1.398,-0.519 -2.496,-1.628 -3.26,-3.298 -0.421,-0.921 -0.661,-1.792 -0.712,-2.589 -0.051,-0.793 0.058,-1.53 0.325,-2.193 0.264,-0.656 0.685,-1.257 1.25,-1.785 0.572,-0.534 1.275,-0.994 2.089,-1.367 0.625,-0.287 1.332,-0.49 2.101,-0.605 0.728,-0.107 1.421,-0.164 2.064,-0.17 l 1.968,4.302 -3.865,1.769 -0.375,-0.818 2.898,-1.326 -1.396,-3.048 -0.166,0.005 c -0.432,0.013 -0.913,0.082 -1.43,0.204 -0.518,0.122 -1.023,0.295 -1.5,0.513 -1.328,0.608 -2.203,1.515 -2.601,2.697 -0.398,1.176 -0.259,2.515 0.411,3.978 0.635,1.388 1.523,2.337 2.639,2.821 1.125,0.485 2.344,0.436 3.613,-0.143 0.547,-0.251 1.024,-0.533 1.421,-0.84 0.392,-0.306 0.727,-0.619 0.999,-0.93 0.227,-0.264 0.444,-0.564 0.648,-0.894 0.116,-0.186 0.215,-0.351 0.296,-0.493 l 0.56,1.221 C 5.686,-2.682 5.152,-2.161 4.628,-1.755 4.069,-1.326 3.486,-0.97 2.895,-0.7 1.881,-0.235 0.907,0 0,0 m 2.188,-12.821 c -0.692,0 -1.443,0.059 -2.23,0.176 -0.817,0.122 -1.569,0.338 -2.237,0.645 -0.863,0.395 -1.61,0.885 -2.222,1.456 -0.618,0.578 -1.08,1.239 -1.371,1.964 -0.296,0.732 -0.417,1.543 -0.36,2.411 0.054,0.858 0.308,1.789 0.754,2.765 0.824,1.795 2.015,2.992 3.542,3.559 1.528,0.566 3.225,0.43 5.04,-0.4 0.625,-0.286 1.241,-0.661 1.83,-1.114 C 5.521,-1.814 6.115,-2.4 6.7,-3.103 l 0.101,-0.121 -0.957,-2.09 -0.437,0.199 -0.039,0.076 c -0.095,0.183 -0.239,0.431 -0.433,0.745 -0.192,0.308 -0.394,0.587 -0.602,0.83 -0.249,0.286 -0.562,0.576 -0.928,0.862 -0.365,0.283 -0.81,0.546 -1.323,0.781 -1.138,0.521 -2.213,0.567 -3.205,0.138 -0.999,-0.433 -1.801,-1.298 -2.383,-2.57 -0.616,-1.344 -0.748,-2.559 -0.391,-3.61 0.352,-1.046 1.137,-1.854 2.334,-2.403 0.448,-0.204 0.921,-0.366 1.408,-0.481 0.418,-0.098 0.809,-0.16 1.165,-0.182 l 1.049,2.288 -2.898,1.326 0.791,1.728 4.774,-2.186 -2.31,-5.047 z" /></g><g
           transform="translate(463.4717,309.1494)"
           id="g440"><path
             id="path442"
             style="fill:#000000;fill-opacity:1;fill-rule:nonzero;stroke:none"
             d="M 0,0 0.983,-0.45 5.761,9.986 4.777,10.436 2.822,6.165 -3.025,8.843 -1.07,13.114 -2.054,13.564 -6.832,3.128 -5.849,2.678 -3.407,8.01 2.441,5.332 Z M 1.229,-1.113 -0.662,-0.246 1.779,5.086 -3.161,7.347 -5.603,2.015 -7.494,2.882 -2.3,14.227 -0.408,13.36 -2.363,9.089 2.576,6.828 4.531,11.099 6.423,10.232 Z" /></g></g></g></g></svg>